<svg xmlns="http://www.w3.org/2000/svg" viewBox="0 0 512 512" role="img" aria-labelledby="title desc">
  <title id="title">PERES favicon</title>
  <desc id="desc">Ícone reduzido da marca PERES: letra P branca em um quadrado preto arredondado.</desc>
  <rect x="16" y="16" width="480" height="480" rx="112" fill="#000"/>
  <g transform="translate(-9.2 -23.9) scale(1.046)">
    <path d="M 361.50 105.50 Q 368.00 109.00 372.00 112.00 Q 376.00 115.00 382.50 121.50 Q 389.00 128.00 396.00 138.50 Q 403.00 149.00 407.00 159.50 Q 411.00 170.00 411.00 172.00 Q 411.00 174.00 411.50 174.50 Q 412.00 175.00 412.50 179.50 Q 413.00 184.00 413.50 184.50 Q 414.00 185.00 414.00 188.50 Q 414.00 192.00 414.50 192.50 Q 415.00 193.00 415.00 210.00 Q 415.00 227.00 414.50 227.50 Q 414.00 228.00 414.00 231.50 Q 414.00 235.00 413.50 235.50 Q 413.00 236.00 413.00 238.50 Q 413.00 241.00 412.50 241.50 Q 412.00 242.00 411.00 248.50 Q 410.00 255.00 408.50 258.50 Q 407.00 262.00 406.50 265.00 Q 406.00 268.00 404.00 272.00 Q 402.00 276.00 402.00 277.00 Q 402.00 278.00 398.50 285.00 Q 395.00 292.00 389.50 300.00 Q 384.00 308.00 376.00 316.00 Q 368.00 324.00 362.50 328.00 Q 357.00 332.00 349.50 336.00 Q 342.00 340.00 331.00 343.50 Q 320.00 347.00 313.00 347.50 Q 306.00 348.00 305.50 348.50 Q 305.00 349.00 291.00 349.00 Q 277.00 349.00 276.50 348.50 Q 276.00 348.00 268.00 347.50 Q 260.00 347.00 259.50 346.50 Q 259.00 346.00 254.00 345.50 Q 249.00 345.00 248.50 344.50 Q 248.00 344.00 246.00 344.00 Q 244.00 344.00 243.50 343.50 Q 243.00 343.00 241.00 343.00 Q 239.00 343.00 236.00 342.00 Q 233.00 341.00 230.50 341.00 Q 228.00 341.00 227.50 340.50 Q 227.00 340.00 221.50 340.00 Q 216.00 340.00 215.00 339.50 Q 214.00 339.00 213.50 339.50 Q 213.00 340.00 209.50 340.00 Q 206.00 340.00 202.50 341.50 Q 199.00 343.00 197.50 344.50 Q 196.00 346.00 195.00 348.00 Q 194.00 350.00 193.50 353.50 Q 193.00 357.00 193.50 357.50 Q 194.00 358.00 194.00 360.50 Q 194.00 363.00 194.50 363.50 Q 195.00 364.00 195.00 365.50 Q 195.00 367.00 196.00 370.00 Q 197.00 373.00 203.00 386.00 Q 209.00 399.00 209.50 402.00 Q 210.00 405.00 210.50 405.50 Q 211.00 406.00 211.00 408.00 Q 211.00 410.00 211.50 410.50 Q 212.00 411.00 212.00 418.00 Q 212.00 425.00 210.00 430.00 Q 208.00 435.00 203.00 439.50 Q 198.00 444.00 192.00 446.50 Q 186.00 449.00 181.50 449.50 Q 177.00 450.00 176.50 450.50 Q 176.00 451.00 160.50 451.00 Q 145.00 451.00 144.50 450.50 Q 144.00 450.00 141.50 450.00 Q 139.00 450.00 138.50 449.50 Q 138.00 449.00 136.00 449.00 Q 134.00 449.00 128.00 447.00 Q 122.00 445.00 117.00 442.00 Q 112.00 439.00 107.00 434.00 Q 102.00 429.00 100.00 426.00 Q 98.00 423.00 98.00 422.00 Q 98.00 421.00 96.00 416.50 Q 94.00 412.00 93.50 408.00 Q 93.00 404.00 92.50 403.50 Q 92.00 403.00 92.00 387.50 Q 92.00 372.00 92.50 371.50 Q 93.00 371.00 93.00 367.50 Q 93.00 364.00 93.50 363.50 Q 94.00 363.00 95.00 354.50 Q 96.00 346.00 96.50 345.50 Q 97.00 345.00 98.00 337.00 Q 99.00 329.00 99.50 328.50 Q 100.00 328.00 100.00 325.50 Q 100.00 323.00 100.50 322.50 Q 101.00 322.00 101.00 319.50 Q 101.00 317.00 101.50 316.50 Q 102.00 316.00 102.50 309.00 Q 103.00 302.00 103.50 301.50 Q 104.00 301.00 104.00 297.00 Q 104.00 293.00 104.50 292.50 Q 105.00 292.00 105.00 283.50 Q 105.00 275.00 105.50 274.50 Q 106.00 274.00 105.50 256.00 Q 105.00 238.00 104.50 237.50 Q 104.00 237.00 103.50 228.50 Q 103.00 220.00 102.50 219.50 Q 102.00 219.00 102.00 216.50 Q 102.00 214.00 101.50 213.50 Q 101.00 213.00 101.00 210.50 Q 101.00 208.00 100.50 207.50 Q 100.00 207.00 100.00 204.00 Q 100.00 201.00 99.50 200.50 Q 99.00 200.00 99.00 196.00 Q 99.00 192.00 98.50 191.50 Q 98.00 191.00 98.00 180.50 Q 98.00 170.00 98.50 169.50 Q 99.00 169.00 99.50 163.50 Q 100.00 158.00 101.50 153.50 Q 103.00 149.00 107.50 141.00 Q 112.00 133.00 118.00 127.00 Q 124.00 121.00 128.00 118.00 Q 132.00 115.00 139.50 111.00 Q 147.00 107.00 148.00 107.00 Q 149.00 107.00 153.00 105.00 Q 157.00 103.00 164.50 100.50 Q 172.00 98.00 173.50 98.00 Q 175.00 98.00 177.00 97.00 Q 179.00 96.00 184.50 95.00 Q 190.00 94.00 190.50 93.50 Q 191.00 93.00 193.00 93.00 Q 195.00 93.00 198.00 92.00 Q 201.00 91.00 203.50 91.00 Q 206.00 91.00 209.00 90.00 Q 212.00 89.00 218.00 88.50 Q 224.00 88.00 224.50 87.50 Q 225.00 87.00 228.50 87.00 Q 232.00 87.00 232.50 86.50 Q 233.00 86.00 236.50 86.00 Q 240.00 86.00 240.50 85.50 Q 241.00 85.00 245.50 85.00 Q 250.00 85.00 250.50 84.50 Q 251.00 84.00 270.00 84.00 Q 289.00 84.00 289.50 84.50 Q 290.00 85.00 294.00 85.00 Q 298.00 85.00 298.50 85.50 Q 299.00 86.00 302.50 86.00 Q 306.00 86.00 309.00 87.00 Q 312.00 88.00 314.50 88.00 Q 317.00 88.00 317.50 88.50 Q 318.00 89.00 323.50 90.00 Q 329.00 91.00 335.00 93.00 Q 341.00 95.00 342.50 96.00 Q 344.00 97.00 345.00 97.00 Q 346.00 97.00 348.50 98.50 Q 351.00 100.00 352.00 100.00 Q 353.00 100.00 354.00 101.00 Q 355.00 102.00 361.50 105.50 Z" fill="#fff"/>
    <path d="M 302.00 173.50 Q 298.00 169.00 293.00 166.00 Q 288.00 163.00 285.00 162.50 Q 282.00 162.00 281.50 161.50 Q 281.00 161.00 272.00 161.00 Q 263.00 161.00 262.50 161.50 Q 262.00 162.00 260.50 162.00 Q 259.00 162.00 254.50 163.50 Q 250.00 165.00 246.00 167.00 Q 242.00 169.00 233.00 176.00 Q 224.00 183.00 219.00 189.00 Q 214.00 195.00 212.00 199.00 Q 210.00 203.00 209.00 204.00 Q 208.00 205.00 205.00 211.50 Q 202.00 218.00 201.00 221.00 Q 200.00 224.00 200.00 225.50 Q 200.00 227.00 199.50 227.50 Q 199.00 228.00 199.00 229.50 Q 199.00 231.00 198.50 231.50 Q 198.00 232.00 198.00 236.50 Q 198.00 241.00 197.50 241.50 Q 197.00 242.00 197.50 243.00 Q 198.00 244.00 198.00 248.00 Q 198.00 252.00 200.00 256.50 Q 202.00 261.00 204.00 263.50 Q 206.00 266.00 210.00 268.50 Q 214.00 271.00 218.50 272.50 Q 223.00 274.00 226.00 274.00 Q 229.00 274.00 229.50 274.50 Q 230.00 275.00 237.50 275.00 Q 245.00 275.00 245.50 274.50 Q 246.00 274.00 251.50 273.50 Q 257.00 273.00 257.50 272.50 Q 258.00 272.00 259.50 272.00 Q 261.00 272.00 264.00 271.00 Q 267.00 270.00 273.50 267.00 Q 280.00 264.00 282.50 262.00 Q 285.00 260.00 286.50 259.50 Q 288.00 259.00 294.50 252.50 Q 301.00 246.00 304.50 240.00 Q 308.00 234.00 310.00 228.00 Q 312.00 222.00 312.00 219.50 Q 312.00 217.00 312.50 216.50 Q 313.00 216.00 313.00 206.50 Q 313.00 197.00 312.50 196.50 Q 312.00 196.00 312.00 194.00 Q 312.00 192.00 311.00 189.00 Q 310.00 186.00 308.00 182.00 Q 306.00 178.00 302.00 173.50 Z" fill="#000"/>
  </g>
</svg>
