<svg width="1904" height="906" viewBox="0 0 1904 906" fill="none" xmlns="http://www.w3.org/2000/svg">
<path d="M942.575 284.401C914.123 293.081 896.281 321.05 896.281 356.735C896.281 400.136 917.017 424.729 955.595 427.623C1006.71 431.481 1033.72 402.547 1029.86 348.537C1027.45 312.853 1017.8 295.975 995.138 286.33C976.813 278.614 963.31 278.132 942.575 284.401Z" fill="black"/>
<path d="M752.578 7.11938C677.832 13.8706 645.041 18.6929 553.899 36.5353C299.765 85.7226 92.407 200.975 28.2706 328.766C4.64146 376.506 -2.59196 410.744 0.783637 465.236C4.64146 538.053 34.0574 595.92 98.676 659.092C239.487 796.045 469.51 878.024 780.547 902.135C876.028 909.368 1108.46 905.028 1185.62 894.419C1361.63 870.79 1473.99 842.821 1583.46 797.009C1731.5 734.32 1826.5 658.61 1871.83 568.433C1900.28 511.53 1908.48 469.576 1900.76 417.496C1880.03 274.274 1721.86 145.037 1474.96 70.7736C1281.1 11.9417 985.494 -13.6164 752.578 7.11938ZM924.251 68.3624L922.804 93.9205L893.87 97.2961C823.465 105.976 764.633 134.428 706.766 187.955C645.523 244.376 607.427 319.121 599.229 397.242L595.853 429.069H572.706C550.042 429.069 549.077 428.587 549.077 415.567C549.077 396.278 557.757 349.019 566.92 320.568C599.229 217.371 684.101 121.408 782.476 77.0425C823.465 58.2357 858.668 50.0377 919.429 43.7687C924.251 43.2865 925.215 50.0377 924.251 68.3624ZM1049.63 55.8245C1092.55 65.4691 1143.18 90.0627 1188.03 123.819C1275.8 189.402 1331.25 286.33 1347.17 403.511L1350.54 429.069H1325.95C1302.32 429.069 1301.35 428.587 1301.35 415.567C1301.35 390.009 1282.06 325.39 1263.26 286.812C1211.18 181.686 1105.09 106.458 996.585 97.7783L958.971 94.885V68.8446V42.3221L989.352 45.6977C1005.75 47.6266 1032.75 51.9667 1049.63 55.8245ZM1277.24 102.118C1362.11 129.123 1440.72 172.042 1492.32 218.335L1514.5 238.589L1423.84 237.625L1332.7 236.66L1311.96 204.351C1289.3 169.63 1225.64 103.565 1200.57 88.616C1192.37 83.7937 1185.62 78.4893 1185.62 76.5603C1185.62 73.6669 1197.19 76.5603 1277.24 102.118ZM700.979 84.2759C648.416 122.854 610.32 162.397 575.6 215.442L562.097 236.178H472.403L382.708 235.696L399.586 221.229C454.56 173.006 538.468 128.641 629.127 99.7073C704.355 75.5958 716.893 72.7025 700.979 84.2759ZM504.712 110.316C448.774 138.286 402.962 170.113 362.937 208.209L333.521 236.178H254.436L175.35 235.696L189.335 224.604C225.502 194.706 320.501 148.895 397.175 123.336C434.307 111.281 529.306 87.6515 544.255 87.1693C548.113 86.6871 530.27 97.2961 504.712 110.316ZM1431.55 105.976C1531.38 132.017 1629.75 173.488 1697.26 216.889L1727.16 236.178H1645.66H1563.69L1542.47 213.995C1513.53 184.579 1450.84 139.732 1401.66 113.21C1379.47 101.154 1365.01 91.5094 1368.87 91.5094C1372.72 91.5094 1401.17 98.2606 1431.55 105.976ZM1033.72 175.899C1096.89 192.295 1137.4 224.604 1163.44 279.578C1177.42 308.994 1178.39 314.299 1178.39 366.379C1178.39 418.942 1177.42 423.282 1164.4 447.394C1146.08 480.185 1120.04 503.332 1080.01 522.621C1050.11 536.606 1045.29 537.57 999.961 536.606C973.438 536.124 944.022 534.677 934.86 534.195C919.911 532.748 917.982 534.195 916.535 545.768C915.571 552.52 920.875 577.113 928.109 599.778C944.022 651.376 942.093 674.523 920.875 696.224C907.855 709.244 902.068 711.173 872.17 712.619C814.303 715.995 778.618 695.259 765.116 650.412C760.775 634.498 761.258 616.174 768.491 549.626C778.136 461.861 776.689 405.922 764.151 361.557C743.897 291.634 741.486 277.649 744.38 261.736C748.72 239.071 780.065 205.797 809.48 193.26C862.526 170.595 977.778 161.432 1033.72 175.899ZM542.808 276.685C531.717 305.619 519.661 353.359 514.839 388.08L509.052 429.069H398.622H288.674V417.978C288.674 385.186 315.679 319.603 341.719 287.776L356.668 269.934H451.185C529.306 269.934 544.737 270.898 542.808 276.685ZM288.674 302.243C273.725 329.73 258.294 377.471 252.507 410.744L249.613 429.069H145.452H41.2908L44.6664 408.816C49.4887 377.953 73.1179 333.106 100.605 302.243L125.681 274.756H214.411H303.141L288.674 302.243ZM1571.88 308.512C1592.62 344.197 1609.98 391.938 1609.98 415.085V429.069H1496.66H1383.33V412.191C1383.33 389.044 1370.31 326.355 1359.22 297.903L1350.54 274.756H1451.33H1551.63L1571.88 308.512ZM1789.37 293.081C1815.89 322.497 1837.11 355.77 1846.75 383.74C1864.11 432.445 1870.86 429.069 1752.72 429.069C1640.84 429.069 1643.74 429.551 1643.74 402.547C1643.74 383.74 1620.59 317.192 1607.57 297.903C1600.82 288.258 1595.51 279.096 1595.51 277.649C1595.51 275.721 1635.54 274.756 1684.24 274.756H1772.97L1789.37 293.081ZM252.025 473.434C252.989 476.81 256.365 493.688 259.74 511.048C262.634 528.408 273.725 560.717 284.334 582.9C294.461 605.082 303.141 623.889 303.141 624.854C303.141 625.336 264.08 625.336 215.857 624.372L128.574 622.925L114.59 609.423C91.9248 587.722 62.0266 538.053 51.8998 505.743C47.0776 489.83 42.7375 474.399 42.7375 471.987C42.7375 464.754 250.096 466.201 252.025 473.434ZM515.321 507.19C518.215 529.373 526.412 563.611 532.681 583.382C538.95 603.154 544.255 620.996 544.255 622.925C544.255 625.336 500.854 626.783 448.292 626.783C367.277 626.783 350.881 625.818 344.612 619.067C333.039 607.494 304.587 545.768 296.39 513.459C282.887 463.307 273.243 467.647 399.104 467.647H509.535L515.321 507.19ZM599.711 499.474C607.909 577.113 654.685 668.254 711.588 718.406C761.258 762.289 836.485 796.045 900.139 803.278L930.038 806.654V829.801V853.43H904.479C852.399 853.43 775.242 824.496 714.964 782.06C626.716 719.853 563.544 610.387 551.006 497.546L547.63 467.647H572.224H596.336L599.711 499.474ZM1349.58 477.774C1349.58 501.403 1338 559.271 1327.39 589.169C1281.58 715.995 1177.9 810.512 1048.67 843.785C1027.45 849.09 999.961 853.43 986.941 853.43H963.794V829.801V806.654L994.656 803.278C1151.38 787.365 1281.1 656.681 1299.42 497.063L1302.8 467.647H1325.95C1346.68 467.647 1349.58 469.094 1349.58 477.774ZM1609.98 480.668C1609.98 502.85 1583.94 569.88 1564.65 599.296L1546.33 626.783H1450.36C1387.67 626.783 1354.4 624.854 1354.4 621.96C1354.4 619.067 1357.77 609.422 1361.63 599.778C1371.28 576.149 1383.33 515.87 1383.33 489.348V467.647H1496.66H1609.98V480.668ZM1855.92 474.399C1855.92 478.256 1851.58 494.652 1846.27 511.53C1836.14 545.768 1817.34 577.595 1790.82 606.529L1773.45 625.818L1684.72 626.783C1635.54 626.783 1595.51 625.818 1595.51 624.372C1595.51 622.925 1602.75 607.011 1611.91 589.169C1630.72 551.073 1643.74 509.119 1643.74 485.008V467.647H1749.83C1837.59 467.647 1855.92 468.612 1855.92 474.399ZM364.384 694.777C403.927 732.391 450.22 764.218 507.123 792.669C527.377 803.278 543.773 812.441 542.808 812.923C539.915 815.816 452.149 794.598 409.231 780.614C322.912 752.162 232.253 707.797 188.853 672.112L175.35 661.021L252.025 660.539H328.699L364.384 694.777ZM574.153 676.452C594.407 718.406 670.599 797.492 712.07 819.192C732.806 830.283 720.268 829.319 673.974 816.781C558.24 785.918 464.687 739.624 399.586 680.792L377.886 661.021L472.403 660.539H566.437L574.153 676.452ZM1496.17 677.899C1455.18 715.03 1379.47 759.878 1311 788.329C1275.8 802.314 1180.8 829.319 1180.8 824.979C1180.8 823.532 1189.96 816.781 1201.05 810.029C1231.43 791.705 1292.19 729.497 1315.34 692.848L1336.56 660.539H1425.77H1514.98L1496.17 677.899ZM1706.43 679.828C1635.06 731.426 1471.1 795.08 1375.13 807.618L1351.99 810.512L1395.39 787.365C1455.67 754.573 1494.73 727.568 1532.34 691.401L1564.17 661.021L1648.56 660.539H1732.95L1706.43 679.828Z" fill="black"/>
</svg>
