<svg width="561" height="318" viewBox="0 0 561 318" fill="none" xmlns="http://www.w3.org/2000/svg">
<path d="M274.808 78.635C266.941 81.035 262.008 88.7684 262.008 98.635C262.008 110.635 267.741 117.435 278.408 118.235C292.541 119.302 300.008 111.302 298.941 96.3684C298.274 86.5017 295.608 81.835 289.341 79.1684C284.274 77.035 280.541 76.9017 274.808 78.635Z" fill="black"/>
<path d="M23.3413 314.636C23.3413 317.302 24.2746 317.302 274.675 317.302C525.075 317.302 526.008 317.302 526.008 314.636C526.008 311.969 525.075 311.969 274.675 311.969C24.2746 311.969 23.3413 311.969 23.3413 314.636Z" fill="black"/>
<path d="M222.275 1.96829C201.608 3.83496 192.541 5.16829 167.341 10.1016C97.0747 23.7016 39.7414 55.5683 22.0081 90.9016C15.4747 104.102 13.4747 113.568 14.4081 128.635C15.4747 148.768 23.6081 164.768 41.4747 182.235C80.4081 220.102 144.008 242.768 230.008 249.435C256.408 251.435 320.675 250.235 342.008 247.302C390.675 240.768 421.741 233.035 452.008 220.368C492.941 203.035 519.208 182.102 531.741 157.168C539.608 141.435 541.875 129.835 539.741 115.435C534.008 75.835 490.275 40.1016 422.008 19.5683C368.408 3.30163 286.675 -3.76504 222.275 1.96829ZM269.741 18.9016L269.341 25.9683L261.341 26.9016C241.875 29.3016 225.608 37.1683 209.608 51.9683C192.675 67.5683 182.141 88.235 179.875 109.835L178.941 118.635H172.541C166.275 118.635 166.008 118.502 166.008 114.902C166.008 109.568 168.408 96.5016 170.941 88.635C179.875 60.1016 203.341 33.5683 230.541 21.3016C241.875 16.1016 251.608 13.835 268.408 12.1016C269.741 11.9683 270.008 13.835 269.741 18.9016ZM304.408 15.435C316.275 18.1016 330.275 24.9016 342.675 34.235C366.941 52.3683 382.275 79.1683 386.675 111.568L387.608 118.635H380.808C374.275 118.635 374.008 118.502 374.008 114.902C374.008 107.835 368.675 89.9683 363.475 79.3016C349.075 50.235 319.741 29.435 289.741 27.035L279.341 26.235V19.035V11.7016L287.741 12.635C292.275 13.1683 299.741 14.3683 304.408 15.435ZM367.341 28.235C390.808 35.7016 412.541 47.5683 426.808 60.3683L432.941 65.9683L407.875 65.7016L382.675 65.435L376.941 56.5016C370.675 46.9016 353.075 28.635 346.141 24.5016C343.875 23.1683 342.008 21.7016 342.008 21.1683C342.008 20.3683 345.208 21.1683 367.341 28.235ZM208.008 23.3016C193.475 33.9683 182.941 44.9016 173.341 59.5683L169.608 65.3016H144.808L120.008 65.1683L124.675 61.1683C139.875 47.835 163.075 35.5683 188.141 27.5683C208.941 20.9016 212.408 20.1016 208.008 23.3016ZM153.741 30.5016C138.275 38.235 125.608 47.035 114.541 57.5683L106.408 65.3016H84.5414L62.6747 65.1683L66.5414 62.1016C76.5414 53.835 102.808 41.1683 124.008 34.1016C134.275 30.7683 160.541 24.235 164.675 24.1016C165.741 23.9683 160.808 26.9016 153.741 30.5016ZM410.008 29.3016C437.608 36.5016 464.808 47.9683 483.475 59.9683L491.741 65.3016H469.208H446.541L440.675 59.1683C432.675 51.035 415.341 38.635 401.741 31.3016C395.608 27.9683 391.608 25.3016 392.675 25.3016C393.741 25.3016 401.608 27.1683 410.008 29.3016ZM300.008 48.635C317.475 53.1683 328.675 62.1016 335.875 77.3016C339.741 85.435 340.008 86.9016 340.008 101.302C340.008 115.835 339.741 117.035 336.141 123.702C331.075 132.768 323.875 139.168 312.808 144.502C304.541 148.368 303.208 148.635 290.675 148.368C283.341 148.235 275.208 147.835 272.675 147.702C268.541 147.302 268.008 147.702 267.608 150.902C267.341 152.768 268.808 159.568 270.808 165.835C275.208 180.102 274.675 186.502 268.808 192.502C265.208 196.102 263.608 196.635 255.341 197.035C239.341 197.968 229.475 192.235 225.741 179.835C224.541 175.435 224.675 170.368 226.675 151.968C229.341 127.702 228.941 112.235 225.475 99.9683C219.875 80.635 219.208 76.7683 220.008 72.3683C221.208 66.1016 229.875 56.9016 238.008 53.435C252.675 47.1683 284.541 44.635 300.008 48.635ZM164.275 76.5016C161.208 84.5016 157.875 97.7016 156.541 107.302L154.941 118.635H124.408H94.0081V115.568C94.0081 106.502 101.475 88.3683 108.675 79.5683L112.808 74.635H138.941C160.541 74.635 164.808 74.9016 164.275 76.5016ZM94.0081 83.5683C89.8748 91.1683 85.6081 104.368 84.0081 113.568L83.2081 118.635H54.4081H25.6081L26.5414 113.035C27.8747 104.502 34.4081 92.1016 42.0081 83.5683L48.9414 75.9683H73.4747H98.0081L94.0081 83.5683ZM448.808 85.3016C454.541 95.1683 459.341 108.368 459.341 114.768V118.635H428.008H396.675V113.968C396.675 107.568 393.075 90.235 390.008 82.3683L387.608 75.9683H415.475H443.208L448.808 85.3016ZM508.941 81.035C516.275 89.1683 522.141 98.3683 524.808 106.102C529.608 119.568 531.475 118.635 498.808 118.635C467.875 118.635 468.675 118.768 468.675 111.302C468.675 106.102 462.275 87.7016 458.675 82.3683C456.808 79.7016 455.341 77.1683 455.341 76.7683C455.341 76.235 466.408 75.9683 479.875 75.9683H504.408L508.941 81.035ZM83.8747 130.902C84.1414 131.835 85.0748 136.502 86.0081 141.302C86.8081 146.102 89.8747 155.035 92.8081 161.168C95.6081 167.302 98.0081 172.502 98.0081 172.768C98.0081 172.902 87.2081 172.902 73.8747 172.635L49.7414 172.235L45.8747 168.502C39.6081 162.502 31.3414 148.768 28.5414 139.835C27.2081 135.435 26.0081 131.168 26.0081 130.502C26.0081 128.502 83.3414 128.902 83.8747 130.902ZM156.675 140.235C157.475 146.368 159.741 155.835 161.475 161.302C163.208 166.768 164.675 171.702 164.675 172.235C164.675 172.902 152.675 173.302 138.141 173.302C115.741 173.302 111.208 173.035 109.475 171.168C106.275 167.968 98.4081 150.902 96.1414 141.968C92.4081 128.102 89.7414 129.302 124.541 129.302H155.075L156.675 140.235ZM180.008 138.102C182.275 159.568 195.208 184.768 210.941 198.635C224.675 210.768 245.475 220.102 263.075 222.102L271.341 223.035V229.435V235.968H264.275C249.875 235.968 228.541 227.968 211.875 216.235C187.475 199.035 170.008 168.768 166.541 137.568L165.608 129.302H172.408H179.075L180.008 138.102ZM387.341 132.102C387.341 138.635 384.141 154.635 381.208 162.902C368.541 197.968 339.875 224.102 304.141 233.302C298.275 234.768 290.675 235.968 287.075 235.968H280.675V229.435V223.035L289.208 222.102C332.541 217.702 368.408 181.568 373.475 137.435L374.408 129.302H380.808C386.541 129.302 387.341 129.702 387.341 132.102ZM459.341 132.902C459.341 139.035 452.141 157.568 446.808 165.702L441.741 173.302H415.208C397.875 173.302 388.675 172.768 388.675 171.968C388.675 171.168 389.608 168.502 390.675 165.835C393.341 159.302 396.675 142.635 396.675 135.302V129.302H428.008H459.341V132.902ZM527.341 131.168C527.341 132.235 526.141 136.768 524.675 141.435C521.875 150.902 516.675 159.702 509.341 167.702L504.541 173.035L480.008 173.302C466.408 173.302 455.341 173.035 455.341 172.635C455.341 172.235 457.341 167.835 459.875 162.902C465.075 152.368 468.675 140.768 468.675 134.102V129.302H498.008C522.275 129.302 527.341 129.568 527.341 131.168ZM114.941 192.102C125.875 202.502 138.675 211.302 154.408 219.168C160.008 222.102 164.541 224.635 164.275 224.768C163.475 225.568 139.208 219.702 127.341 215.835C103.475 207.968 78.4081 195.702 66.4081 185.835L62.6747 182.768L83.8747 182.635H105.075L114.941 192.102ZM172.941 187.035C178.541 198.635 199.608 220.502 211.075 226.502C216.808 229.568 213.341 229.302 200.541 225.835C168.541 217.302 142.675 204.502 124.675 188.235L118.675 182.768L144.808 182.635H170.808L172.941 187.035ZM427.875 187.435C416.541 197.702 395.608 210.102 376.675 217.968C366.941 221.835 340.675 229.302 340.675 228.102C340.675 227.702 343.208 225.835 346.275 223.968C354.675 218.902 371.475 201.702 377.875 191.568L383.741 182.635H408.408H433.075L427.875 187.435ZM486.008 187.968C466.275 202.235 420.941 219.835 394.408 223.302L388.008 224.102L400.008 217.702C416.675 208.635 427.475 201.168 437.875 191.168L446.675 182.768L470.008 182.635H493.341L486.008 187.968Z" fill="black"/>
<path d="M14.08 302.718C11.3493 302.718 8.91733 302.238 6.784 301.278C4.672 300.297 3.008 298.932 1.792 297.182C0.597333 295.412 0 293.332 0 290.942C0 288.553 0.597333 286.484 1.792 284.734C3.008 282.985 4.672 281.63 6.784 280.67C8.91733 279.71 11.3493 279.23 14.08 279.23C16.4693 279.23 18.5707 279.572 20.384 280.254C22.1973 280.937 23.6907 281.876 24.864 283.07C26.0373 284.244 26.8267 285.566 27.232 287.038L21.504 288.414C21.056 287.305 20.4587 286.441 19.712 285.822C18.9653 285.182 18.112 284.734 17.152 284.478C16.2133 284.222 15.2213 284.094 14.176 284.094C12.768 284.094 11.4773 284.34 10.304 284.83C9.13067 285.3 8.192 286.014 7.488 286.974C6.80533 287.934 6.464 289.15 6.464 290.622V291.262C6.464 292.713 6.80533 293.929 7.488 294.91C8.192 295.87 9.13067 296.596 10.304 297.086C11.4773 297.556 12.768 297.79 14.176 297.79C15.2213 297.79 16.2133 297.662 17.152 297.406C18.112 297.15 18.9653 296.713 19.712 296.094C20.4587 295.454 21.056 294.58 21.504 293.47L27.232 294.846C26.8267 296.318 26.0373 297.652 24.864 298.846C23.6907 300.02 22.1973 300.958 20.384 301.662C18.5707 302.366 16.4693 302.718 14.08 302.718Z" fill="black"/>
<path d="M29.739 302.302V279.582H43.755C46.7843 279.582 49.0563 280.233 50.571 281.534C52.107 282.814 52.875 284.681 52.875 287.134C52.875 288.905 52.4483 290.377 51.595 291.55C50.763 292.724 49.547 293.598 47.947 294.174L53.099 302.302H45.803L41.387 295.006H36.139V302.302H29.739ZM43.179 284.318H36.139V290.43H43.179C45.3763 290.43 46.475 289.46 46.475 287.518V287.198C46.475 285.278 45.3763 284.318 43.179 284.318Z" fill="black"/>
<path d="M55.7702 302.302V279.582H76.8903V284.318H62.1702V288.542H75.4502V293.086H62.1702V297.566H77.1143V302.302H55.7702Z" fill="black"/>
<path d="M78.0065 302.302L89.0785 279.582H95.8625L106.935 302.302H100.118L97.6225 296.926H86.9025L84.4385 302.302H78.0065ZM88.9505 292.574H95.6385L92.3105 285.406L88.9505 292.574Z" fill="black"/>
<path d="M111.856 302.302V284.318H102.832V279.582H127.281V284.318H118.257V302.302H111.856Z" fill="black"/>
<path d="M129.645 302.302V279.582H136.045V302.302H129.645Z" fill="black"/>
<path d="M148.922 302.302L137.85 279.582H144.826L152.602 296.222L160.346 279.582H166.938L155.866 302.302H148.922Z" fill="black"/>
<path d="M168.739 302.302V279.582H189.859V284.318H175.139V288.542H188.419V293.086H175.139V297.566H190.083V302.302H168.739Z" fill="black"/>
<path d="M213.455 302.718C210.724 302.718 208.292 302.238 206.159 301.278C204.047 300.297 202.383 298.932 201.167 297.182C199.972 295.412 199.375 293.332 199.375 290.942C199.375 288.553 199.972 286.484 201.167 284.734C202.383 282.985 204.047 281.63 206.159 280.67C208.292 279.71 210.724 279.23 213.455 279.23C215.844 279.23 217.946 279.572 219.759 280.254C221.572 280.937 223.066 281.876 224.239 283.07C225.412 284.244 226.202 285.566 226.607 287.038L220.879 288.414C220.431 287.305 219.834 286.441 219.087 285.822C218.34 285.182 217.487 284.734 216.527 284.478C215.588 284.222 214.596 284.094 213.551 284.094C212.143 284.094 210.852 284.34 209.679 284.83C208.506 285.3 207.567 286.014 206.863 286.974C206.18 287.934 205.839 289.15 205.839 290.622V291.262C205.839 292.713 206.18 293.929 206.863 294.91C207.567 295.87 208.506 296.596 209.679 297.086C210.852 297.556 212.143 297.79 213.551 297.79C214.596 297.79 215.588 297.662 216.527 297.406C217.487 297.15 218.34 296.713 219.087 296.094C219.834 295.454 220.431 294.58 220.879 293.47L226.607 294.846C226.202 296.318 225.412 297.652 224.239 298.846C223.066 300.02 221.572 300.958 219.759 301.662C217.946 302.366 215.844 302.718 213.455 302.718Z" fill="black"/>
<path d="M241.85 302.686C238.97 302.686 236.517 302.185 234.49 301.182C232.485 300.158 230.949 298.761 229.882 296.99C228.815 295.22 228.282 293.214 228.282 290.974C228.282 288.713 228.805 286.697 229.85 284.926C230.917 283.156 232.463 281.758 234.49 280.734C236.517 279.71 238.97 279.198 241.85 279.198C244.751 279.198 247.205 279.71 249.21 280.734C251.237 281.737 252.773 283.124 253.818 284.894C254.885 286.665 255.418 288.692 255.418 290.974C255.418 293.214 254.885 295.22 253.818 296.99C252.773 298.761 251.237 300.158 249.21 301.182C247.205 302.185 244.751 302.686 241.85 302.686ZM241.85 297.822C244.026 297.822 245.754 297.257 247.034 296.126C248.314 294.974 248.954 293.385 248.954 291.358V290.526C248.954 288.5 248.314 286.921 247.034 285.79C245.754 284.638 244.026 284.062 241.85 284.062C239.674 284.062 237.946 284.638 236.666 285.79C235.386 286.921 234.746 288.5 234.746 290.526V291.358C234.746 293.385 235.386 294.974 236.666 296.126C237.946 297.257 239.674 297.822 241.85 297.822Z" fill="black"/>
<path d="M258.302 302.302V279.582H270.557C273.565 279.582 276.051 280.073 278.013 281.054C279.997 282.036 281.48 283.39 282.461 285.118C283.443 286.825 283.934 288.777 283.934 290.974C283.934 293.15 283.443 295.092 282.461 296.798C281.48 298.505 279.997 299.849 278.013 300.83C276.051 301.812 273.565 302.302 270.557 302.302H258.302ZM264.702 297.566H270.109C272.605 297.566 274.451 297.012 275.646 295.902C276.862 294.793 277.47 293.278 277.47 291.358V290.526C277.47 288.564 276.862 287.038 275.646 285.95C274.451 284.862 272.605 284.318 270.109 284.318H264.702V297.566Z" fill="black"/>
<path d="M286.802 302.302V279.582H307.922V284.318H293.202V288.542H306.482V293.086H293.202V297.566H308.146V302.302H286.802Z" fill="black"/>
<path d="M331.517 302.718C328.787 302.718 326.355 302.238 324.221 301.278C322.109 300.297 320.445 298.932 319.229 297.182C318.035 295.412 317.438 293.332 317.438 290.942C317.438 288.553 318.035 286.484 319.229 284.734C320.445 282.985 322.109 281.63 324.221 280.67C326.355 279.71 328.787 279.23 331.517 279.23C333.907 279.23 336.008 279.572 337.822 280.254C339.635 280.937 341.128 281.876 342.302 283.07C343.475 284.244 344.264 285.566 344.669 287.038L338.941 288.414C338.493 287.305 337.896 286.441 337.15 285.822C336.403 285.182 335.55 284.734 334.59 284.478C333.651 284.222 332.659 284.094 331.613 284.094C330.205 284.094 328.915 284.34 327.741 284.83C326.568 285.3 325.63 286.014 324.926 286.974C324.243 287.934 323.901 289.15 323.901 290.622V291.262C323.901 292.713 324.243 293.929 324.926 294.91C325.63 295.87 326.568 296.596 327.741 297.086C328.915 297.556 330.205 297.79 331.613 297.79C332.659 297.79 333.651 297.662 334.59 297.406C335.55 297.15 336.403 296.713 337.15 296.094C337.896 295.454 338.493 294.58 338.941 293.47L344.669 294.846C344.264 296.318 343.475 297.652 342.302 298.846C341.128 300.02 339.635 300.958 337.822 301.662C336.008 302.366 333.907 302.718 331.517 302.718Z" fill="black"/>
<path d="M359.913 302.686C357.033 302.686 354.579 302.185 352.552 301.182C350.547 300.158 349.011 298.761 347.944 296.99C346.878 295.22 346.345 293.214 346.345 290.974C346.345 288.713 346.867 286.697 347.913 284.926C348.979 283.156 350.526 281.758 352.552 280.734C354.579 279.71 357.033 279.198 359.913 279.198C362.814 279.198 365.267 279.71 367.272 280.734C369.299 281.737 370.835 283.124 371.88 284.894C372.947 286.665 373.48 288.692 373.48 290.974C373.48 293.214 372.947 295.22 371.88 296.99C370.835 298.761 369.299 300.158 367.272 301.182C365.267 302.185 362.814 302.686 359.913 302.686ZM359.913 297.822C362.089 297.822 363.816 297.257 365.096 296.126C366.376 294.974 367.017 293.385 367.017 291.358V290.526C367.017 288.5 366.376 286.921 365.096 285.79C363.816 284.638 362.089 284.062 359.913 284.062C357.737 284.062 356.008 284.638 354.728 285.79C353.448 286.921 352.809 288.5 352.809 290.526V291.358C352.809 293.385 353.448 294.974 354.728 296.126C356.008 297.257 357.737 297.822 359.913 297.822Z" fill="black"/>
<path d="M376.364 302.302V279.582H382.764V297.566H396.396V302.302H376.364Z" fill="black"/>
<path d="M398.77 302.302V279.582H405.17V297.566H418.802V302.302H398.77Z" fill="black"/>
<path d="M421.177 302.302V279.582H442.297V284.318H427.577V288.542H440.857V293.086H427.577V297.566H442.521V302.302H421.177Z" fill="black"/>
<path d="M458.299 302.718C455.568 302.718 453.136 302.238 451.003 301.278C448.891 300.297 447.227 298.932 446.011 297.182C444.816 295.412 444.219 293.332 444.219 290.942C444.219 288.553 444.816 286.484 446.011 284.734C447.227 282.985 448.891 281.63 451.003 280.67C453.136 279.71 455.568 279.23 458.299 279.23C460.688 279.23 462.789 279.572 464.603 280.254C466.416 280.937 467.909 281.876 469.083 283.07C470.256 284.244 471.045 285.566 471.451 287.038L465.723 288.414C465.275 287.305 464.677 286.441 463.931 285.822C463.184 285.182 462.331 284.734 461.371 284.478C460.432 284.222 459.44 284.094 458.395 284.094C456.987 284.094 455.696 284.34 454.523 284.83C453.349 285.3 452.411 286.014 451.707 286.974C451.024 287.934 450.683 289.15 450.683 290.622V291.262C450.683 292.713 451.024 293.929 451.707 294.91C452.411 295.87 453.349 296.596 454.523 297.086C455.696 297.556 456.987 297.79 458.395 297.79C459.44 297.79 460.432 297.662 461.371 297.406C462.331 297.15 463.184 296.713 463.931 296.094C464.677 295.454 465.275 294.58 465.723 293.47L471.451 294.846C471.045 296.318 470.256 297.652 469.083 298.846C467.909 300.02 466.416 300.958 464.603 301.662C462.789 302.366 460.688 302.718 458.299 302.718Z" fill="black"/>
<path d="M480.482 302.302V284.318H471.457V279.582H495.905V284.318H486.882V302.302H480.482Z" fill="black"/>
<path d="M498.27 302.302V279.582H504.67V302.302H498.27Z" fill="black"/>
<path d="M521.131 302.686C518.251 302.686 515.798 302.185 513.771 301.182C511.766 300.158 510.23 298.761 509.163 296.99C508.097 295.22 507.563 293.214 507.563 290.974C507.563 288.713 508.086 286.697 509.131 284.926C510.198 283.156 511.745 281.758 513.771 280.734C515.798 279.71 518.251 279.198 521.131 279.198C524.033 279.198 526.486 279.71 528.491 280.734C530.518 281.737 532.054 283.124 533.099 284.894C534.166 286.665 534.699 288.692 534.699 290.974C534.699 293.214 534.166 295.22 533.099 296.99C532.054 298.761 530.518 300.158 528.491 301.182C526.486 302.185 524.033 302.686 521.131 302.686ZM521.131 297.822C523.307 297.822 525.035 297.257 526.315 296.126C527.595 294.974 528.235 293.385 528.235 291.358V290.526C528.235 288.5 527.595 286.921 526.315 285.79C525.035 284.638 523.307 284.062 521.131 284.062C518.955 284.062 517.227 284.638 515.947 285.79C514.667 286.921 514.027 288.5 514.027 290.526V291.358C514.027 293.385 514.667 294.974 515.947 296.126C517.227 297.257 518.955 297.822 521.131 297.822Z" fill="black"/>
<path d="M537.583 302.302V279.582H544.143L555.023 292.318H555.055V279.582H561.007V302.302H556.111L543.567 287.646H543.535V302.302H537.583Z" fill="black"/>
</svg>
