<svg width="688" height="299" viewBox="0 0 688 299" fill="none" xmlns="http://www.w3.org/2000/svg">
<path d="M99.4292 280.46C99.4292 284.585 99.9318 287.549 100.937 289.352C101.942 291.12 103.433 292.004 105.409 292.004C106.657 292.004 107.749 291.917 108.685 291.744C109.621 291.536 110.47 291.432 111.233 291.432C112.62 291.432 113.625 291.727 114.249 292.316C114.873 292.871 115.185 293.599 115.185 294.5C115.185 295.679 114.752 296.58 113.885 297.204C113.053 297.828 111.978 298.261 110.661 298.504C109.378 298.747 108.061 298.868 106.709 298.868C102.965 298.868 99.9838 298.175 97.7652 296.788C95.5812 295.401 94.0038 293.356 93.0332 290.652C92.0972 287.913 91.6292 284.516 91.6292 280.46C91.6292 276.404 92.0972 272.972 93.0332 270.164C94.0038 267.321 95.5812 265.172 97.7652 263.716C99.9838 262.26 102.965 261.532 106.709 261.532C108.061 261.532 109.378 261.653 110.661 261.896C111.978 262.139 113.053 262.572 113.885 263.196C114.752 263.82 115.185 264.721 115.185 265.9C115.185 266.767 114.873 267.495 114.249 268.084C113.625 268.673 112.62 268.968 111.233 268.968C110.47 268.968 109.621 268.881 108.685 268.708C107.749 268.5 106.657 268.396 105.409 268.396C102.982 268.396 101.37 269.384 100.573 271.36C99.8105 273.301 99.4292 276.335 99.4292 280.46Z" fill="black"/>
<path d="M123.887 298.816C122.708 298.816 121.772 298.556 121.079 298.036C120.386 297.481 120.039 296.701 120.039 295.696V273.232C120.039 269.211 121.096 266.264 123.211 264.392C125.36 262.485 128.706 261.532 133.247 261.532C136.956 261.532 139.782 262.468 141.723 264.34C143.699 266.177 144.687 268.847 144.687 272.348C144.687 273.561 144.652 274.74 144.583 275.884C144.514 276.993 144.41 277.773 144.271 278.224C143.751 280.131 142.798 281.587 141.411 282.592C143.283 284.152 144.219 285.955 144.219 288V295.696C144.219 297.845 143.023 298.92 140.631 298.92C139.452 298.92 138.516 298.66 137.823 298.14C137.13 297.585 136.783 296.771 136.783 295.696V288.832C136.783 286.96 136.488 285.643 135.899 284.88C135.344 284.117 134.2 283.736 132.467 283.736C130.595 283.736 129.295 284.152 128.567 284.984C127.874 285.781 127.527 287.272 127.527 289.456V295.696C127.527 297.776 126.314 298.816 123.887 298.816ZM127.111 279.472C127.978 278.744 128.74 278.276 129.399 278.068C130.092 277.825 131.08 277.704 132.363 277.704C134.096 277.704 135.362 277.617 136.159 277.444C136.991 277.271 137.528 276.907 137.771 276.352C138.014 275.797 138.135 274.931 138.135 273.752C138.135 271.395 137.771 269.765 137.043 268.864C136.35 267.928 135.084 267.46 133.247 267.46C131.202 267.46 129.746 267.928 128.879 268.864C128.047 269.8 127.631 271.429 127.631 273.752C127.631 274.896 127.579 275.919 127.475 276.82C127.406 277.687 127.284 278.571 127.111 279.472Z" fill="black"/>
<path d="M153.362 298.504C152.703 298.504 152.148 298.244 151.698 297.724C151.247 297.204 151.022 296.545 151.022 295.748V271.412C151.022 268.153 152.027 265.796 154.038 264.34C156.048 262.849 159.29 262.104 163.762 262.104H170.262C171.406 262.104 172.29 262.416 172.914 263.04C173.572 263.629 173.902 264.479 173.902 265.588C173.902 266.663 173.572 267.495 172.914 268.084C172.29 268.673 171.406 268.968 170.262 268.968H163.398C161.664 268.968 160.416 269.315 159.654 270.008C158.891 270.701 158.51 271.828 158.51 273.388C158.51 273.943 158.475 274.636 158.406 275.468C158.336 276.265 158.232 277.184 158.094 278.224C158.683 277.739 159.428 277.357 160.33 277.08C161.231 276.768 162.115 276.612 162.982 276.612H168.13C169.1 276.612 169.846 276.907 170.366 277.496C170.92 278.085 171.198 278.9 171.198 279.94C171.198 280.98 170.92 281.812 170.366 282.436C169.811 283.06 169.066 283.372 168.13 283.372H162.566C160.971 283.372 159.896 283.701 159.342 284.36C158.787 284.984 158.51 286.267 158.51 288.208V291.64H170.262C171.544 291.64 172.463 291.917 173.018 292.472C173.607 293.027 173.902 293.928 173.902 295.176C173.902 296.355 173.624 297.204 173.07 297.724C172.515 298.244 171.579 298.504 170.262 298.504H153.362Z" fill="black"/>
<path d="M186.332 295.436C186.332 297.759 185.118 298.92 182.692 298.92C181.513 298.92 180.577 298.625 179.884 298.036C179.19 297.447 178.844 296.58 178.844 295.436V274.844C178.844 270.06 179.814 266.645 181.756 264.6C183.697 262.555 186.73 261.532 190.856 261.532C195.085 261.532 198.205 262.572 200.216 264.652C202.226 266.732 203.232 270.129 203.232 274.844V295.436C203.232 297.759 202.018 298.92 199.592 298.92C198.413 298.92 197.477 298.625 196.784 298.036C196.09 297.447 195.744 296.58 195.744 295.436V282.904C195.085 283.493 194.357 283.996 193.56 284.412C192.797 284.828 191.896 285.036 190.856 285.036C189.33 285.036 188.186 285.313 187.424 285.868C186.696 286.423 186.332 287.411 186.332 288.832V295.436ZM186.02 280.2C186.574 279.645 187.233 279.212 187.996 278.9C188.793 278.588 189.746 278.432 190.856 278.432C192.173 278.432 193.178 278.328 193.872 278.12C194.6 277.912 195.102 277.513 195.38 276.924C195.657 276.335 195.796 275.468 195.796 274.324C195.796 271.759 195.432 270.008 194.704 269.072C193.976 268.101 192.676 267.616 190.804 267.616C189.07 267.616 187.874 268.119 187.216 269.124C186.592 270.095 186.28 271.897 186.28 274.532C186.28 275.884 186.262 277.028 186.228 277.964C186.193 278.9 186.124 279.645 186.02 280.2Z" fill="black"/>
<path d="M219.015 298.92C218.148 298.92 217.264 298.729 216.363 298.348C215.496 297.932 215.063 297.273 215.063 296.372V272.036C215.063 270.927 215.34 270.164 215.895 269.748C216.45 269.332 216.9 269.072 217.247 268.968H207.211C206.379 268.968 205.755 268.604 205.339 267.876C204.958 267.113 204.767 266.333 204.767 265.536C204.767 264.669 204.975 263.889 205.391 263.196C205.807 262.468 206.414 262.104 207.211 262.104H230.455C231.252 262.104 231.859 262.468 232.275 263.196C232.691 263.889 232.899 264.669 232.899 265.536C232.899 266.333 232.691 267.113 232.275 267.876C231.894 268.604 231.287 268.968 230.455 268.968H222.551V296.372C222.551 297.239 222.187 297.88 221.459 298.296C220.766 298.712 219.951 298.92 219.015 298.92Z" fill="black"/>
<path d="M240.081 298.92C237.515 298.92 236.233 297.759 236.233 295.436V265.016C236.233 263.803 236.527 262.919 237.117 262.364C237.706 261.809 238.642 261.532 239.925 261.532C242.455 261.532 243.721 262.693 243.721 265.016V295.436C243.721 296.615 243.426 297.499 242.837 298.088C242.282 298.643 241.363 298.92 240.081 298.92Z" fill="black"/>
<path d="M263.444 298.92C262.057 298.92 260.775 298.417 259.596 297.412C258.417 296.407 257.533 295.003 256.944 293.2L248.312 267.096C247.757 265.328 247.844 263.959 248.572 262.988C249.335 262.017 250.34 261.532 251.588 261.532C252.801 261.532 253.72 261.931 254.344 262.728C255.003 263.491 255.609 264.773 256.164 266.576L263.704 290.184C264.64 287.48 265.559 285.071 266.46 282.956C267.396 280.807 268.176 278.831 268.8 277.028C269.424 275.191 269.753 273.423 269.788 271.724C269.823 270.857 269.753 270.077 269.58 269.384C269.441 268.691 269.285 267.997 269.112 267.304C268.973 266.576 268.904 265.779 268.904 264.912C268.904 264.08 269.216 263.317 269.84 262.624C270.464 261.896 271.539 261.532 273.064 261.532C274.208 261.532 275.092 261.965 275.716 262.832C276.34 263.664 276.756 264.704 276.964 265.952C277.207 267.165 277.328 268.379 277.328 269.592C277.328 272.469 276.981 275.225 276.288 277.86C275.595 280.46 274.659 283.008 273.48 285.504C272.336 288 271.071 290.565 269.684 293.2C269.06 294.552 268.471 295.661 267.916 296.528C267.361 297.36 266.737 297.967 266.044 298.348C265.385 298.729 264.519 298.92 263.444 298.92Z" fill="black"/>
<path d="M284.479 298.504C283.82 298.504 283.266 298.244 282.815 297.724C282.364 297.204 282.139 296.545 282.139 295.748V271.412C282.139 268.153 283.144 265.796 285.155 264.34C287.166 262.849 290.407 262.104 294.879 262.104H301.379C302.523 262.104 303.407 262.416 304.031 263.04C304.69 263.629 305.019 264.479 305.019 265.588C305.019 266.663 304.69 267.495 304.031 268.084C303.407 268.673 302.523 268.968 301.379 268.968H294.515C292.782 268.968 291.534 269.315 290.771 270.008C290.008 270.701 289.627 271.828 289.627 273.388C289.627 273.943 289.592 274.636 289.523 275.468C289.454 276.265 289.35 277.184 289.211 278.224C289.8 277.739 290.546 277.357 291.447 277.08C292.348 276.768 293.232 276.612 294.099 276.612H299.247C300.218 276.612 300.963 276.907 301.483 277.496C302.038 278.085 302.315 278.9 302.315 279.94C302.315 280.98 302.038 281.812 301.483 282.436C300.928 283.06 300.183 283.372 299.247 283.372H293.683C292.088 283.372 291.014 283.701 290.459 284.36C289.904 284.984 289.627 286.267 289.627 288.208V291.64H301.379C302.662 291.64 303.58 291.917 304.135 292.472C304.724 293.027 305.019 293.928 305.019 295.176C305.019 296.355 304.742 297.204 304.187 297.724C303.632 298.244 302.696 298.504 301.379 298.504H284.479Z" fill="black"/>
<path d="M323.88 298.504C323.222 298.504 322.65 298.261 322.164 297.776C321.714 297.256 321.488 296.615 321.488 295.852V272.66C321.488 269.055 322.459 266.299 324.4 264.392C326.376 262.485 329.219 261.532 332.928 261.532C342.635 261.532 347.488 267.824 347.488 280.408C347.488 286.544 346.275 291.103 343.848 294.084C341.422 297.031 337.695 298.504 332.668 298.504H323.88ZM328.976 292.368H332.668C335.234 292.368 337.088 291.38 338.232 289.404C339.411 287.393 340 284.169 340 279.732C340 275.503 339.463 272.504 338.388 270.736C337.348 268.933 335.563 268.032 333.032 268.032C330.328 268.032 328.976 269.02 328.976 270.996V292.368Z" fill="black"/>
<path d="M355.776 298.504C355.117 298.504 354.562 298.244 354.112 297.724C353.661 297.204 353.436 296.545 353.436 295.748V271.412C353.436 268.153 354.441 265.796 356.452 264.34C358.462 262.849 361.704 262.104 366.176 262.104H372.676C373.82 262.104 374.704 262.416 375.328 263.04C375.986 263.629 376.316 264.479 376.316 265.588C376.316 266.663 375.986 267.495 375.328 268.084C374.704 268.673 373.82 268.968 372.676 268.968H365.812C364.078 268.968 362.83 269.315 362.068 270.008C361.305 270.701 360.924 271.828 360.924 273.388C360.924 273.943 360.889 274.636 360.82 275.468C360.75 276.265 360.646 277.184 360.508 278.224C361.097 277.739 361.842 277.357 362.744 277.08C363.645 276.768 364.529 276.612 365.396 276.612H370.544C371.514 276.612 372.26 276.907 372.78 277.496C373.334 278.085 373.612 278.9 373.612 279.94C373.612 280.98 373.334 281.812 372.78 282.436C372.225 283.06 371.48 283.372 370.544 283.372H364.98C363.385 283.372 362.31 283.701 361.756 284.36C361.201 284.984 360.924 286.267 360.924 288.208V291.64H372.676C373.958 291.64 374.877 291.917 375.432 292.472C376.021 293.027 376.316 293.928 376.316 295.176C376.316 296.355 376.038 297.204 375.484 297.724C374.929 298.244 373.993 298.504 372.676 298.504H355.776Z" fill="black"/>
<path d="M394.206 298.92C392.819 298.92 391.536 298.417 390.358 297.412C389.179 296.407 388.295 295.003 387.706 293.2L379.074 267.096C378.519 265.328 378.606 263.959 379.334 262.988C380.096 262.017 381.102 261.532 382.35 261.532C383.563 261.532 384.482 261.931 385.106 262.728C385.764 263.491 386.371 264.773 386.926 266.576L394.466 290.184C395.402 287.48 396.32 285.071 397.222 282.956C398.158 280.807 398.938 278.831 399.562 277.028C400.186 275.191 400.515 273.423 400.55 271.724C400.584 270.857 400.515 270.077 400.342 269.384C400.203 268.691 400.047 267.997 399.874 267.304C399.735 266.576 399.666 265.779 399.666 264.912C399.666 264.08 399.978 263.317 400.602 262.624C401.226 261.896 402.3 261.532 403.826 261.532C404.97 261.532 405.854 261.965 406.478 262.832C407.102 263.664 407.518 264.704 407.726 265.952C407.968 267.165 408.09 268.379 408.09 269.592C408.09 272.469 407.743 275.225 407.05 277.86C406.356 280.46 405.42 283.008 404.242 285.504C403.098 288 401.832 290.565 400.446 293.2C399.822 294.552 399.232 295.661 398.678 296.528C398.123 297.36 397.499 297.967 396.806 298.348C396.147 298.729 395.28 298.92 394.206 298.92Z" fill="black"/>
<path d="M415.241 298.504C414.582 298.504 414.027 298.244 413.577 297.724C413.126 297.204 412.901 296.545 412.901 295.748V271.412C412.901 268.153 413.906 265.796 415.917 264.34C417.927 262.849 421.169 262.104 425.641 262.104H432.141C433.285 262.104 434.169 262.416 434.793 263.04C435.451 263.629 435.781 264.479 435.781 265.588C435.781 266.663 435.451 267.495 434.793 268.084C434.169 268.673 433.285 268.968 432.141 268.968H425.277C423.543 268.968 422.295 269.315 421.533 270.008C420.77 270.701 420.389 271.828 420.389 273.388C420.389 273.943 420.354 274.636 420.285 275.468C420.215 276.265 420.111 277.184 419.973 278.224C420.562 277.739 421.307 277.357 422.209 277.08C423.11 276.768 423.994 276.612 424.861 276.612H430.009C430.979 276.612 431.725 276.907 432.245 277.496C432.799 278.085 433.077 278.9 433.077 279.94C433.077 280.98 432.799 281.812 432.245 282.436C431.69 283.06 430.945 283.372 430.009 283.372H424.445C422.85 283.372 421.775 283.701 421.221 284.36C420.666 284.984 420.389 286.267 420.389 288.208V291.64H432.141C433.423 291.64 434.342 291.917 434.897 292.472C435.486 293.027 435.781 293.928 435.781 295.176C435.781 296.355 435.503 297.204 434.949 297.724C434.394 298.244 433.458 298.504 432.141 298.504H415.241Z" fill="black"/>
<path d="M445.742 298.504C443.246 298.504 441.998 297.152 441.998 294.448V265.588C441.998 262.884 443.246 261.532 445.742 261.532C448.238 261.532 449.486 262.884 449.486 265.588V288.676C449.486 289.231 449.434 289.941 449.33 290.808C449.261 291.64 449.174 292.333 449.07 292.888C449.972 291.813 451.081 291.276 452.398 291.276H460.042C461.325 291.276 462.313 291.588 463.006 292.212C463.7 292.836 464.046 293.737 464.046 294.916C464.046 297.308 462.712 298.504 460.042 298.504H445.742Z" fill="black"/>
<path d="M478.508 298.92C475.492 298.92 472.926 298.331 470.812 297.152C468.697 295.939 467.085 293.963 465.976 291.224C464.901 288.485 464.364 284.776 464.364 280.096C464.364 275.416 464.901 271.724 465.976 269.02C467.085 266.316 468.697 264.392 470.812 263.248C472.926 262.104 475.492 261.532 478.508 261.532C481.558 261.532 484.124 262.104 486.204 263.248C488.318 264.392 489.913 266.316 490.988 269.02C492.097 271.724 492.652 275.416 492.652 280.096C492.652 284.776 492.097 288.485 490.988 291.224C489.913 293.963 488.318 295.939 486.204 297.152C484.124 298.331 481.558 298.92 478.508 298.92ZM478.508 292.056C479.894 292.056 481.073 291.727 482.044 291.068C483.049 290.409 483.812 289.213 484.332 287.48C484.886 285.747 485.164 283.285 485.164 280.096C485.164 276.872 484.886 274.428 484.332 272.764C483.812 271.065 483.049 269.921 482.044 269.332C481.073 268.708 479.894 268.396 478.508 268.396C477.156 268.396 475.977 268.708 474.972 269.332C473.966 269.921 473.186 271.065 472.632 272.764C472.112 274.428 471.852 276.872 471.852 280.096C471.852 283.285 472.112 285.747 472.632 287.48C473.186 289.213 473.966 290.409 474.972 291.068C475.977 291.727 477.156 292.056 478.508 292.056Z" fill="black"/>
<path d="M506.101 295.436C506.101 297.759 504.888 298.92 502.461 298.92C501.283 298.92 500.347 298.625 499.653 298.036C498.96 297.447 498.613 296.58 498.613 295.436V273.232C498.613 269.349 499.636 266.437 501.681 264.496C503.727 262.52 507.159 261.532 511.977 261.532C515.548 261.532 518.339 262.485 520.349 264.392C522.395 266.299 523.417 269.367 523.417 273.596C523.417 277.271 522.447 280.079 520.505 282.02C518.599 283.961 515.895 284.932 512.393 284.932C510.417 284.932 508.979 285.088 508.077 285.4C507.211 285.677 506.656 286.215 506.413 287.012C506.205 287.775 506.101 288.901 506.101 290.392V295.436ZM505.633 280.408C506.049 280.061 506.448 279.767 506.829 279.524C507.211 279.247 507.713 279.039 508.337 278.9C508.996 278.727 509.863 278.64 510.937 278.64C512.428 278.64 513.607 278.519 514.473 278.276C515.34 277.999 515.947 277.496 516.293 276.768C516.675 276.04 516.865 274.983 516.865 273.596C516.865 271.759 516.64 270.424 516.189 269.592C515.773 268.725 515.167 268.171 514.369 267.928C513.607 267.651 512.671 267.512 511.561 267.512C509.551 267.512 508.129 267.876 507.297 268.604C506.5 269.332 506.101 270.597 506.101 272.4C506.101 273.683 506.067 275.087 505.997 276.612C505.928 278.137 505.807 279.403 505.633 280.408Z" fill="black"/>
<path d="M530.412 298.504C529.754 298.504 529.199 298.244 528.748 297.724C528.298 297.204 528.072 296.545 528.072 295.748V271.412C528.072 268.153 529.078 265.796 531.088 264.34C533.099 262.849 536.34 262.104 540.812 262.104H547.312C548.456 262.104 549.34 262.416 549.964 263.04C550.623 263.629 550.952 264.479 550.952 265.588C550.952 266.663 550.623 267.495 549.964 268.084C549.34 268.673 548.456 268.968 547.312 268.968H540.448C538.715 268.968 537.467 269.315 536.704 270.008C535.942 270.701 535.56 271.828 535.56 273.388C535.56 273.943 535.526 274.636 535.456 275.468C535.387 276.265 535.283 277.184 535.144 278.224C535.734 277.739 536.479 277.357 537.38 277.08C538.282 276.768 539.166 276.612 540.032 276.612H545.18C546.151 276.612 546.896 276.907 547.416 277.496C547.971 278.085 548.248 278.9 548.248 279.94C548.248 280.98 547.971 281.812 547.416 282.436C546.862 283.06 546.116 283.372 545.18 283.372H539.616C538.022 283.372 536.947 283.701 536.392 284.36C535.838 284.984 535.56 286.267 535.56 288.208V291.64H547.312C548.595 291.64 549.514 291.917 550.068 292.472C550.658 293.027 550.952 293.928 550.952 295.176C550.952 296.355 550.675 297.204 550.12 297.724C549.566 298.244 548.63 298.504 547.312 298.504H530.412Z" fill="black"/>
<path d="M559.844 298.816C558.665 298.816 557.729 298.556 557.036 298.036C556.343 297.481 555.996 296.701 555.996 295.696V273.232C555.996 269.211 557.053 266.264 559.168 264.392C561.317 262.485 564.663 261.532 569.204 261.532C572.913 261.532 575.739 262.468 577.68 264.34C579.656 266.177 580.644 268.847 580.644 272.348C580.644 273.561 580.609 274.74 580.54 275.884C580.471 276.993 580.367 277.773 580.228 278.224C579.708 280.131 578.755 281.587 577.368 282.592C579.24 284.152 580.176 285.955 580.176 288V295.696C580.176 297.845 578.98 298.92 576.588 298.92C575.409 298.92 574.473 298.66 573.78 298.14C573.087 297.585 572.74 296.771 572.74 295.696V288.832C572.74 286.96 572.445 285.643 571.856 284.88C571.301 284.117 570.157 283.736 568.424 283.736C566.552 283.736 565.252 284.152 564.524 284.984C563.831 285.781 563.484 287.272 563.484 289.456V295.696C563.484 297.776 562.271 298.816 559.844 298.816ZM563.068 279.472C563.935 278.744 564.697 278.276 565.356 278.068C566.049 277.825 567.037 277.704 568.32 277.704C570.053 277.704 571.319 277.617 572.116 277.444C572.948 277.271 573.485 276.907 573.728 276.352C573.971 275.797 574.092 274.931 574.092 273.752C574.092 271.395 573.728 269.765 573 268.864C572.307 267.928 571.041 267.46 569.204 267.46C567.159 267.46 565.703 267.928 564.836 268.864C564.004 269.8 563.588 271.429 563.588 273.752C563.588 274.896 563.536 275.919 563.432 276.82C563.363 277.687 563.241 278.571 563.068 279.472Z" fill="black"/>
<path d="M241.357 46.0161C239.65 46.0161 238.072 45.3974 236.621 44.1601C235.17 42.9228 234.082 41.1948 233.357 38.9761L222.733 6.84809C222.05 4.67209 222.157 2.98676 223.053 1.79209C223.992 0.597425 225.229 9.15527e-05 226.765 9.15527e-05C228.258 9.15527e-05 229.389 0.490758 230.157 1.47209C230.968 2.41076 231.714 3.98943 232.397 6.20809L241.677 35.2641C242.829 31.9361 243.96 28.9708 245.069 26.3681C246.221 23.7228 247.181 21.2908 247.949 19.0721C248.717 16.8108 249.122 14.6348 249.165 12.5441C249.208 11.4774 249.122 10.5174 248.909 9.66409C248.738 8.81076 248.546 7.95742 248.333 7.10409C248.162 6.20809 248.077 5.22676 248.077 4.16009C248.077 3.13609 248.461 2.19742 249.229 1.34409C249.997 0.448091 251.32 9.15527e-05 253.197 9.15527e-05C254.605 9.15527e-05 255.693 0.533424 256.461 1.60009C257.229 2.62409 257.741 3.90409 257.997 5.44009C258.296 6.93342 258.445 8.42676 258.445 9.92009C258.445 13.4614 258.018 16.8534 257.165 20.0961C256.312 23.2961 255.16 26.4321 253.709 29.5041C252.301 32.5761 250.744 35.7334 249.037 38.9761C248.269 40.6401 247.544 42.0054 246.861 43.0721C246.178 44.0961 245.41 44.8428 244.557 45.3121C243.746 45.7814 242.68 46.0161 241.357 46.0161Z" fill="black"/>
<path d="M269.29 46.0161C266.132 46.0161 264.554 44.5868 264.554 41.7281V4.28809C264.554 2.79476 264.916 1.70676 265.642 1.02409C266.367 0.341424 267.519 9.15527e-05 269.098 9.15527e-05C272.212 9.15527e-05 273.77 1.42942 273.77 4.28809V41.7281C273.77 43.1788 273.407 44.2668 272.682 44.9921C271.999 45.6748 270.868 46.0161 269.29 46.0161Z" fill="black"/>
<path d="M291.762 41.7281C291.762 44.5868 290.269 46.0161 287.282 46.0161C285.831 46.0161 284.679 45.6534 283.826 44.9281C282.973 44.2028 282.546 43.1361 282.546 41.7281V16.5761C282.546 12.5654 283.079 9.36543 284.146 6.97609C285.213 4.54409 286.962 2.77342 289.394 1.66409C291.826 0.554757 295.069 9.15527e-05 299.122 9.15527e-05C304.498 9.15527e-05 308.551 1.25876 311.282 3.77609C314.055 6.25076 315.442 10.5174 315.442 16.5761V41.7281C315.442 44.5868 313.949 46.0161 310.962 46.0161C309.511 46.0161 308.359 45.6534 307.506 44.9281C306.653 44.2028 306.226 43.1361 306.226 41.7281V16.5761C306.226 13.4188 305.671 11.1788 304.562 9.85609C303.495 8.49076 301.682 7.80809 299.122 7.80809C297.117 7.80809 295.581 8.10676 294.514 8.70409C293.447 9.30142 292.722 10.2401 292.338 11.5201C291.954 12.8001 291.762 14.4854 291.762 16.5761V41.7281Z" fill="black"/>
<path d="M328.915 46.0161C325.757 46.0161 324.179 44.5868 324.179 41.7281V4.28809C324.179 2.79476 324.541 1.70676 325.267 1.02409C325.992 0.341424 327.144 9.15527e-05 328.723 9.15527e-05C331.837 9.15527e-05 333.395 1.42942 333.395 4.28809V41.7281C333.395 43.1788 333.032 44.2668 332.307 44.9921C331.624 45.6748 330.493 46.0161 328.915 46.0161Z" fill="black"/>
<path d="M350.68 23.2961C350.68 28.3734 351.299 32.0214 352.536 34.2401C353.773 36.4161 355.608 37.5041 358.04 37.5041C359.576 37.5041 360.92 37.3974 362.072 37.1841C363.224 36.9281 364.269 36.8001 365.208 36.8001C366.915 36.8001 368.152 37.1628 368.92 37.8881C369.688 38.5708 370.072 39.4668 370.072 40.5761C370.072 42.0268 369.539 43.1361 368.472 43.9041C367.448 44.6721 366.125 45.2054 364.504 45.5041C362.925 45.8028 361.304 45.9521 359.64 45.9521C355.032 45.9521 351.363 45.0988 348.632 43.3921C345.944 41.6854 344.003 39.1681 342.808 35.8401C341.656 32.4694 341.08 28.2881 341.08 23.2961C341.08 18.3041 341.656 14.0801 342.808 10.6241C344.003 7.12542 345.944 4.48009 348.632 2.68809C351.363 0.896091 355.032 9.15527e-05 359.64 9.15527e-05C361.304 9.15527e-05 362.925 0.149424 364.504 0.44809C366.125 0.746758 367.448 1.28009 368.472 2.04809C369.539 2.81609 370.072 3.92543 370.072 5.37609C370.072 6.44276 369.688 7.33876 368.92 8.06409C368.152 8.78942 366.915 9.15209 365.208 9.15209C364.269 9.15209 363.224 9.04543 362.072 8.83209C360.92 8.57609 359.576 8.44809 358.04 8.44809C355.053 8.44809 353.069 9.66409 352.088 12.0961C351.149 14.4854 350.68 18.2188 350.68 23.2961Z" fill="black"/>
<path d="M381.29 46.0161C378.132 46.0161 376.554 44.5868 376.554 41.7281V4.28809C376.554 2.79476 376.916 1.70676 377.642 1.02409C378.367 0.341424 379.519 9.15527e-05 381.098 9.15527e-05C384.212 9.15527e-05 385.77 1.42942 385.77 4.28809V41.7281C385.77 43.1788 385.407 44.2668 384.682 44.9921C383.999 45.6748 382.868 46.0161 381.29 46.0161Z" fill="black"/>
<path d="M410.356 46.0161C405.193 46.0161 401.246 44.7361 398.516 42.1761C395.828 39.5734 394.484 35.6694 394.484 30.4641V4.99209C394.484 1.66409 396.02 9.15527e-05 399.092 9.15527e-05C402.164 9.15527e-05 403.7 1.66409 403.7 4.99209V30.4641C403.7 33.1521 404.276 35.1148 405.428 36.3521C406.622 37.5894 408.265 38.2081 410.356 38.2081C415.476 38.2081 418.036 35.6268 418.036 30.4641V4.99209C418.036 1.66409 419.572 9.15527e-05 422.644 9.15527e-05C425.716 9.15527e-05 427.252 1.66409 427.252 4.99209V30.4641C427.252 35.6268 425.822 39.5094 422.964 42.1121C420.105 44.7148 415.902 46.0161 410.356 46.0161Z" fill="black"/>
<path d="M446.115 46.0161C444.494 46.0161 442.787 45.8881 440.995 45.6321C439.203 45.3761 437.752 45.0348 436.643 44.6081C434.851 43.8828 433.955 42.6668 433.955 40.9601C433.955 39.7228 434.318 38.7414 435.043 38.0161C435.811 37.2481 437.006 36.8641 438.627 36.8641C439.736 36.8641 441.08 37.0134 442.659 37.3121C444.238 37.6108 445.624 37.7601 446.819 37.7601C449.464 37.7601 451.363 37.4188 452.515 36.7361C453.667 36.0534 454.243 34.6668 454.243 32.5761C454.243 31.3388 453.795 30.2934 452.899 29.4401C452.046 28.5868 450.318 27.7761 447.715 27.0081C442.979 25.6001 439.544 23.8508 437.411 21.7601C435.32 19.6694 434.275 16.9601 434.275 13.6321C434.275 10.7308 434.915 8.27742 436.195 6.27209C437.518 4.22409 439.331 2.66676 441.635 1.60009C443.939 0.533424 446.563 9.15527e-05 449.507 9.15527e-05C452.963 9.15527e-05 455.822 0.469425 458.083 1.40809C459.875 2.09076 460.771 3.30676 460.771 5.05609C460.771 6.29342 460.387 7.29609 459.619 8.06409C458.894 8.78942 457.72 9.15209 456.099 9.15209C455.032 9.15209 453.88 9.04543 452.643 8.83209C451.406 8.57609 450.19 8.44809 448.995 8.44809C447.16 8.44809 445.774 8.76809 444.835 9.40809C443.896 10.0481 443.427 11.1148 443.427 12.6081C443.427 13.9734 444.088 15.2108 445.411 16.3201C446.734 17.4294 449.166 18.5174 452.707 19.5841C456.76 20.7788 459.555 22.4001 461.091 24.4481C462.627 26.4534 463.395 29.0134 463.395 32.1281C463.395 36.6508 461.88 40.1068 458.851 42.4961C455.864 44.8428 451.619 46.0161 446.115 46.0161Z" fill="black"/>
<path d="M0.666602 39.504C0.133268 40.5707 0.133268 42.4373 0.666602 43.504C1.33327 45.2373 13.5999 45.504 100.133 45.504H198.8V41.504V37.504H100.133C13.5999 37.504 1.33327 37.7707 0.666602 39.504Z" fill="black"/>
<path d="M490 39.504C489.467 40.5707 489.467 42.4373 490 43.504C490.667 45.2373 502.533 45.504 586.133 45.504H681.467V41.504V37.504H586.133C502.533 37.504 490.667 37.7707 490 39.504Z" fill="black"/>
<path d="M176.133 57.3707C155.733 58.1707 152.533 59.104 145.333 65.7707C143.467 67.6373 140.8 70.704 139.467 72.5707L137.2 76.1707L131.733 70.0373C128.667 66.5707 123.2 62.4373 119.467 60.704C112.8 57.504 112.533 57.504 60.4 57.504H7.86667L4 61.504L0 65.3707L0.4 148.437L0.8 231.504L4.13333 237.237C5.86667 240.437 9.46667 244.304 12.1333 245.904C16.5333 248.704 18.2667 248.837 43.4667 248.837C67.2 248.837 70.5333 248.571 74.2667 246.304C80.8 242.304 83.2 236.971 83.8667 224.704L84.4 213.904L102 212.837C130.933 210.971 128.267 210.571 130 217.504C133.733 231.371 140.933 240.971 152 246.037C157.867 248.704 160 248.837 209.067 248.837C258.667 248.837 260 248.704 263.733 246.037L267.467 243.237L269.6 246.037C271.733 248.704 273.067 248.837 294.933 248.837C315.467 248.837 318.533 248.571 321.867 246.304C326.4 243.237 329.467 237.637 329.467 232.571V228.971L331.733 232.171C340.133 244.971 347.067 248.437 365.6 249.237C382.133 249.904 392.267 247.637 399.2 241.504L403.733 237.637L407.6 241.637C414.533 248.837 419.6 249.504 472 249.504C499.333 249.504 521.467 248.971 524.267 248.171C526.8 247.371 530.4 245.371 532.133 243.504C535.2 240.171 535.333 240.171 538 242.704C539.6 244.037 543.867 246.171 547.733 247.371C553.733 249.371 560.8 249.637 607.067 249.237C653.733 248.837 660 248.571 664.533 246.437C671.867 242.971 679.867 235.237 683.867 227.637L687.467 220.837V186.037V151.237L683.467 144.704C681.067 140.971 677.2 136.971 674.133 135.237C670.267 133.104 669.6 132.171 671.467 132.171C675.733 132.171 682.533 127.371 684.933 122.704C687.467 117.637 687.733 90.1707 685.333 78.704C683.467 70.304 675.2 61.2373 667.2 58.8373C663.733 57.7707 645.867 57.504 610.133 57.7707L558.133 58.1707L550.4 62.1707C546.133 64.304 541.2 67.7707 539.467 69.7707C537.733 71.7707 536 73.504 535.733 73.504C535.467 73.504 534.8 71.104 534.267 68.304C533.733 64.8373 532.267 62.0373 530 60.304C526.533 57.6373 525.067 57.504 472.267 57.504C418.667 57.504 418 57.504 412.133 60.4373C408.667 62.304 404.267 66.1707 401.6 69.7707L396.933 76.0373L391.6 70.1707C388.533 67.104 383.467 63.104 380.133 61.3707C374.133 58.1707 373.867 58.1707 323.2 57.7707C278.667 57.3707 271.733 57.6373 268.133 59.504C265.867 60.704 263.733 62.4373 263.2 63.504C262.667 64.9707 261.6 64.4373 258.533 61.504L254.533 57.504H227.733C212.933 57.504 199.6 57.2373 198.133 57.104C196.667 56.8373 186.8 56.9707 176.133 57.3707ZM247.867 71.104C250.133 73.3707 250 95.3707 247.733 97.2373C246.8 98.0373 236.4 98.8373 222.533 99.104C201.067 99.504 198.667 99.7707 195.2 102.304C190.667 105.771 188.4 113.371 190.533 118.037C193.6 124.837 197.067 125.771 221.6 126.571C248 127.371 246.8 126.571 246.8 142.971C246.8 157.771 247.333 157.504 225.067 157.504C196.4 157.637 191.867 159.371 190 171.637C188.8 180.037 191.6 186.837 197.467 189.904C201.6 191.904 205.333 192.171 227.067 191.904C242.267 191.771 252.667 192.171 253.467 192.971C254.933 194.437 255.6 216.571 254.133 218.704C253.6 219.771 238.667 220.171 207.333 220.171C154.933 220.171 155.067 220.171 150.667 210.171C148.267 204.704 148 200.437 147.733 145.904C147.467 87.504 147.467 87.504 150.533 81.904C156.267 70.9707 161.067 70.0373 211.6 69.6373C236.933 69.504 246.667 69.904 247.867 71.104ZM519.867 71.104C520.8 72.0373 521.467 76.9707 521.467 84.1707C521.467 91.3707 520.8 96.304 519.867 97.2373C518.8 98.304 511.067 98.8373 494.267 98.8373C467.733 98.9707 460.667 99.904 457.2 104.304C454 108.171 454 117.637 457.333 121.637C460.267 125.237 470.133 126.571 493.6 126.704C510.933 126.837 511.333 127.104 511.867 141.504C512.667 157.637 513.333 157.237 487.867 157.771C464.133 158.304 460 159.371 456.667 165.637C454.4 170.171 454.267 179.637 456.533 184.171C457.467 186.037 460.267 188.571 462.8 189.904C466.933 192.037 470.667 192.304 495.867 191.904C519.867 191.504 524.4 191.771 525.467 193.504C527.333 196.437 527.067 216.704 525.2 218.571C522.667 221.104 426.933 220.837 420.8 218.304C415.867 216.171 412.667 212.171 410.8 205.637C410.133 203.237 409.467 175.771 409.333 144.304C409.067 90.5707 409.2 86.9707 411.6 82.1707C414.8 75.6373 419.867 71.904 427.067 70.704C437.733 69.104 518.133 69.3707 519.867 71.104ZM663.2 73.104C671.333 76.5707 673.867 82.1707 674.4 98.0373C674.667 105.904 674.4 112.304 673.6 113.504C672.4 115.104 668.667 115.504 651.333 115.237C639.867 115.104 629.867 114.437 629.2 113.771C628.533 113.104 627.333 109.904 626.667 106.704C624.933 98.8373 622.133 94.9707 616.8 92.704C602.133 86.704 588 94.9707 589.867 108.571C591.333 119.104 598.267 123.104 633.867 133.637C660.4 141.637 665.333 143.771 670.133 150.171C673.2 154.037 673.867 156.704 674.933 167.771C676.533 185.904 676.267 205.371 674.4 210.837C673.467 213.371 670.8 216.704 668.267 218.437C663.733 221.504 663.6 221.504 614.267 221.504C583.867 221.504 562.8 220.971 559.733 220.037C552.933 218.171 546.267 212.037 543.467 205.104C542.133 201.904 540.933 194.037 540.533 186.571C539.867 175.904 540.133 172.971 542 170.171L544.133 166.837H565.333C580.667 166.837 586.8 167.237 587.733 168.437C588.533 169.371 589.467 173.104 590 176.704C590.4 180.304 591.733 184.704 592.933 186.571C597.2 193.104 610.667 195.504 619.467 191.371C624 189.237 628.133 182.704 628.133 177.637C628.133 172.304 624.4 165.637 619.867 162.837C617.467 161.371 601.867 155.637 585.2 150.037C568.533 144.571 552.933 138.704 550.667 137.104C542.533 131.637 540.8 126.704 540.8 109.504C540.8 97.104 541.333 93.2373 543.333 89.504C546.533 83.504 553.067 76.5707 558.133 73.7707C563.067 71.104 586.533 70.0373 628.8 70.5707C652.4 70.8373 659.067 71.3707 663.2 73.104ZM109.467 72.1707C115.733 73.904 123.6 80.5707 126.933 86.9707C130.8 94.704 133.067 122.571 131.2 141.104C128 173.637 114 183.904 73.3333 184.171C59.6 184.171 59.3333 184.571 59.8667 202.971C60.5333 224.037 61.8667 222.971 35.0667 222.571L12.8 222.171L12.4 148.171C12.2667 107.504 12.4 73.3707 12.8 72.4373C13.6 70.4373 102.133 70.1707 109.467 72.1707ZM374.4 74.4373C381.6 78.304 387.733 85.904 390.267 94.1707C391.6 98.0373 392.667 108.037 393.067 118.304C394.267 146.971 390.8 155.771 375.6 162.971C371.2 165.104 366.533 166.837 365.467 166.837C362.933 166.837 360.133 169.371 360.133 171.771C360.133 172.571 363.333 176.571 367.2 180.571C373.467 186.971 375.067 187.904 383.333 189.637C391.867 191.371 392.667 191.904 393.733 195.504C395.2 200.571 393.733 211.904 391.2 215.904C388.133 220.837 380.8 223.237 369.467 223.237C354 223.237 349.2 219.771 339.467 201.904C328 180.837 326.4 178.837 322.533 178.837C320.533 178.837 318.533 179.637 317.867 180.437C317.333 181.371 316.533 190.837 316.133 201.504L315.467 220.837L296.133 221.237C279.2 221.504 276.667 221.371 275.2 219.237C273.867 217.504 273.467 200.971 273.467 146.037C273.467 106.971 273.867 74.0373 274.267 72.8373C275.067 70.9707 279.733 70.704 322 71.104C367.467 71.504 368.933 71.6373 374.4 74.4373Z" fill="black"/>
<path d="M57.8667 93.7705C56 96.7038 57.2 157.904 59.2 159.104C62.2667 161.237 77.2 159.637 81.0667 156.704C88.4 151.37 90.1334 145.37 90.1334 126.17C90.1334 106.57 88.6667 100.57 82.6667 95.5038C79.0667 92.5705 77.3334 92.1705 68.8 92.1705C62.4 92.1705 58.5334 92.7038 57.8667 93.7705Z" fill="black"/>
<path d="M320.133 92.037C315.733 93.237 315.2 97.637 315.867 125.504C316.533 150.837 316.533 150.837 327.867 150.837C343.867 150.837 348.667 144.037 348.667 120.97C348.8 106.037 346.533 99.1037 340.133 94.7037C336.4 92.037 325.2 90.5703 320.133 92.037Z" fill="black"/>
<path d="M0.133301 280.17C0.133301 282.704 1.06663 282.837 30.5333 282.837C47.3333 282.837 61.3333 282.437 61.8666 282.037C62.2666 281.637 62.2666 280.437 61.8666 279.37C61.3333 277.904 55.6 277.504 30.6666 277.504C1.06663 277.504 0.133301 277.637 0.133301 280.17Z" fill="black"/>
<path d="M609.467 280.17C609.467 282.837 610.4 282.837 645.467 282.837C680.533 282.837 681.467 282.837 681.467 280.17C681.467 277.504 680.533 277.504 645.467 277.504C610.4 277.504 609.467 277.504 609.467 280.17Z" fill="black"/>
</svg>
