<svg xmlns="http://www.w3.org/2000/svg" viewBox="0 0 873 873" role="img" aria-labelledby="title desc" shape-rendering="geometricPrecision">
  <title id="title">Logo PERES completa</title>
  <desc id="desc">Logo PERES em preto e branco com fundo externo transparente.</desc>
  <g transform="translate(16.5 0)">
<path id="shape-0" d="M 57.50 28.50 Q 49.00 35.00 40.00 44.50 Q 31.00 54.00 27.00 59.50 Q 23.00 65.00 20.50 70.00 Q 18.00 75.00 17.00 76.00 Q 16.00 77.00 11.00 89.00 Q 6.00 101.00 6.00 102.50 Q 6.00 104.00 5.00 106.00 Q 4.00 108.00 3.50 112.00 Q 3.00 116.00 2.50 116.50 Q 2.00 117.00 1.50 124.50 Q 1.00 132.00 0.50 132.50 Q 0.00 133.00 0.00 435.50 Q 0.00 738.00 0.50 738.50 Q 1.00 739.00 1.00 743.50 Q 1.00 748.00 1.50 748.50 Q 2.00 749.00 2.50 754.00 Q 3.00 759.00 7.50 772.50 Q 12.00 786.00 17.00 795.50 Q 22.00 805.00 27.00 812.00 Q 32.00 819.00 36.00 823.00 Q 40.00 827.00 40.00 827.50 Q 40.00 828.00 50.50 837.00 Q 61.00 846.00 66.50 849.50 Q 72.00 853.00 75.50 854.50 Q 79.00 856.00 80.00 857.00 Q 81.00 858.00 82.00 858.00 Q 83.00 858.00 87.50 860.50 Q 92.00 863.00 98.00 865.00 Q 104.00 867.00 105.50 867.00 Q 107.00 867.00 111.50 868.50 Q 116.00 870.00 118.00 870.00 Q 120.00 870.00 120.50 870.50 Q 121.00 871.00 124.50 871.00 Q 128.00 871.00 128.50 871.50 Q 129.00 872.00 420.00 872.00 Q 711.00 872.00 711.50 871.50 Q 712.00 871.00 715.50 871.00 Q 719.00 871.00 719.50 870.50 Q 720.00 870.00 722.00 870.00 Q 724.00 870.00 724.50 869.50 Q 725.00 869.00 730.50 868.00 Q 736.00 867.00 740.50 865.00 Q 745.00 863.00 747.50 862.50 Q 750.00 862.00 759.00 857.50 Q 768.00 853.00 770.50 851.00 Q 773.00 849.00 776.00 847.50 Q 779.00 846.00 784.00 842.00 Q 789.00 838.00 797.00 830.00 Q 805.00 822.00 808.50 817.50 Q 812.00 813.00 816.00 807.00 Q 820.00 801.00 824.50 792.00 Q 829.00 783.00 832.50 772.50 Q 836.00 762.00 836.00 760.00 Q 836.00 758.00 837.00 755.00 Q 838.00 752.00 838.00 749.00 Q 838.00 746.00 838.50 745.50 Q 839.00 745.00 839.00 738.50 Q 839.00 732.00 839.50 731.50 Q 840.00 731.00 840.00 435.00 Q 840.00 139.00 839.50 138.50 Q 839.00 138.00 839.00 132.00 Q 839.00 126.00 838.50 125.50 Q 838.00 125.00 837.50 119.50 Q 837.00 114.00 836.50 113.50 Q 836.00 113.00 835.00 107.50 Q 834.00 102.00 832.00 97.50 Q 830.00 93.00 830.00 92.00 Q 830.00 91.00 829.00 89.50 Q 828.00 88.00 828.00 87.00 Q 828.00 86.00 823.50 77.50 Q 819.00 69.00 815.00 63.00 Q 811.00 57.00 806.50 51.50 Q 802.00 46.00 792.00 37.00 Q 782.00 28.00 773.50 22.50 Q 765.00 17.00 759.00 14.00 Q 753.00 11.00 740.50 7.00 Q 728.00 3.00 723.00 2.50 Q 718.00 2.00 717.50 1.50 Q 717.00 1.00 713.00 1.00 Q 709.00 1.00 708.50 0.50 Q 708.00 0.00 419.50 0.00 Q 131.00 0.00 130.50 0.50 Q 130.00 1.00 126.00 1.00 Q 122.00 1.00 121.50 1.50 Q 121.00 2.00 116.00 2.50 Q 111.00 3.00 100.00 6.50 Q 89.00 10.00 77.50 16.00 Q 66.00 22.00 57.50 28.50 Z" fill="#000000"/>
<path id="shape-5" d="M 361.50 105.50 Q 368.00 109.00 372.00 112.00 Q 376.00 115.00 382.50 121.50 Q 389.00 128.00 396.00 138.50 Q 403.00 149.00 407.00 159.50 Q 411.00 170.00 411.00 172.00 Q 411.00 174.00 411.50 174.50 Q 412.00 175.00 412.50 179.50 Q 413.00 184.00 413.50 184.50 Q 414.00 185.00 414.00 188.50 Q 414.00 192.00 414.50 192.50 Q 415.00 193.00 415.00 210.00 Q 415.00 227.00 414.50 227.50 Q 414.00 228.00 414.00 231.50 Q 414.00 235.00 413.50 235.50 Q 413.00 236.00 413.00 238.50 Q 413.00 241.00 412.50 241.50 Q 412.00 242.00 411.00 248.50 Q 410.00 255.00 408.50 258.50 Q 407.00 262.00 406.50 265.00 Q 406.00 268.00 404.00 272.00 Q 402.00 276.00 402.00 277.00 Q 402.00 278.00 398.50 285.00 Q 395.00 292.00 389.50 300.00 Q 384.00 308.00 376.00 316.00 Q 368.00 324.00 362.50 328.00 Q 357.00 332.00 349.50 336.00 Q 342.00 340.00 331.00 343.50 Q 320.00 347.00 313.00 347.50 Q 306.00 348.00 305.50 348.50 Q 305.00 349.00 291.00 349.00 Q 277.00 349.00 276.50 348.50 Q 276.00 348.00 268.00 347.50 Q 260.00 347.00 259.50 346.50 Q 259.00 346.00 254.00 345.50 Q 249.00 345.00 248.50 344.50 Q 248.00 344.00 246.00 344.00 Q 244.00 344.00 243.50 343.50 Q 243.00 343.00 241.00 343.00 Q 239.00 343.00 236.00 342.00 Q 233.00 341.00 230.50 341.00 Q 228.00 341.00 227.50 340.50 Q 227.00 340.00 221.50 340.00 Q 216.00 340.00 215.00 339.50 Q 214.00 339.00 213.50 339.50 Q 213.00 340.00 209.50 340.00 Q 206.00 340.00 202.50 341.50 Q 199.00 343.00 197.50 344.50 Q 196.00 346.00 195.00 348.00 Q 194.00 350.00 193.50 353.50 Q 193.00 357.00 193.50 357.50 Q 194.00 358.00 194.00 360.50 Q 194.00 363.00 194.50 363.50 Q 195.00 364.00 195.00 365.50 Q 195.00 367.00 196.00 370.00 Q 197.00 373.00 203.00 386.00 Q 209.00 399.00 209.50 402.00 Q 210.00 405.00 210.50 405.50 Q 211.00 406.00 211.00 408.00 Q 211.00 410.00 211.50 410.50 Q 212.00 411.00 212.00 418.00 Q 212.00 425.00 210.00 430.00 Q 208.00 435.00 203.00 439.50 Q 198.00 444.00 192.00 446.50 Q 186.00 449.00 181.50 449.50 Q 177.00 450.00 176.50 450.50 Q 176.00 451.00 160.50 451.00 Q 145.00 451.00 144.50 450.50 Q 144.00 450.00 141.50 450.00 Q 139.00 450.00 138.50 449.50 Q 138.00 449.00 136.00 449.00 Q 134.00 449.00 128.00 447.00 Q 122.00 445.00 117.00 442.00 Q 112.00 439.00 107.00 434.00 Q 102.00 429.00 100.00 426.00 Q 98.00 423.00 98.00 422.00 Q 98.00 421.00 96.00 416.50 Q 94.00 412.00 93.50 408.00 Q 93.00 404.00 92.50 403.50 Q 92.00 403.00 92.00 387.50 Q 92.00 372.00 92.50 371.50 Q 93.00 371.00 93.00 367.50 Q 93.00 364.00 93.50 363.50 Q 94.00 363.00 95.00 354.50 Q 96.00 346.00 96.50 345.50 Q 97.00 345.00 98.00 337.00 Q 99.00 329.00 99.50 328.50 Q 100.00 328.00 100.00 325.50 Q 100.00 323.00 100.50 322.50 Q 101.00 322.00 101.00 319.50 Q 101.00 317.00 101.50 316.50 Q 102.00 316.00 102.50 309.00 Q 103.00 302.00 103.50 301.50 Q 104.00 301.00 104.00 297.00 Q 104.00 293.00 104.50 292.50 Q 105.00 292.00 105.00 283.50 Q 105.00 275.00 105.50 274.50 Q 106.00 274.00 105.50 256.00 Q 105.00 238.00 104.50 237.50 Q 104.00 237.00 103.50 228.50 Q 103.00 220.00 102.50 219.50 Q 102.00 219.00 102.00 216.50 Q 102.00 214.00 101.50 213.50 Q 101.00 213.00 101.00 210.50 Q 101.00 208.00 100.50 207.50 Q 100.00 207.00 100.00 204.00 Q 100.00 201.00 99.50 200.50 Q 99.00 200.00 99.00 196.00 Q 99.00 192.00 98.50 191.50 Q 98.00 191.00 98.00 180.50 Q 98.00 170.00 98.50 169.50 Q 99.00 169.00 99.50 163.50 Q 100.00 158.00 101.50 153.50 Q 103.00 149.00 107.50 141.00 Q 112.00 133.00 118.00 127.00 Q 124.00 121.00 128.00 118.00 Q 132.00 115.00 139.50 111.00 Q 147.00 107.00 148.00 107.00 Q 149.00 107.00 153.00 105.00 Q 157.00 103.00 164.50 100.50 Q 172.00 98.00 173.50 98.00 Q 175.00 98.00 177.00 97.00 Q 179.00 96.00 184.50 95.00 Q 190.00 94.00 190.50 93.50 Q 191.00 93.00 193.00 93.00 Q 195.00 93.00 198.00 92.00 Q 201.00 91.00 203.50 91.00 Q 206.00 91.00 209.00 90.00 Q 212.00 89.00 218.00 88.50 Q 224.00 88.00 224.50 87.50 Q 225.00 87.00 228.50 87.00 Q 232.00 87.00 232.50 86.50 Q 233.00 86.00 236.50 86.00 Q 240.00 86.00 240.50 85.50 Q 241.00 85.00 245.50 85.00 Q 250.00 85.00 250.50 84.50 Q 251.00 84.00 270.00 84.00 Q 289.00 84.00 289.50 84.50 Q 290.00 85.00 294.00 85.00 Q 298.00 85.00 298.50 85.50 Q 299.00 86.00 302.50 86.00 Q 306.00 86.00 309.00 87.00 Q 312.00 88.00 314.50 88.00 Q 317.00 88.00 317.50 88.50 Q 318.00 89.00 323.50 90.00 Q 329.00 91.00 335.00 93.00 Q 341.00 95.00 342.50 96.00 Q 344.00 97.00 345.00 97.00 Q 346.00 97.00 348.50 98.50 Q 351.00 100.00 352.00 100.00 Q 353.00 100.00 354.00 101.00 Q 355.00 102.00 361.50 105.50 Z" fill="#FFFFFF"/>
<path id="shape-7" d="M 430.00 122.50 Q 433.00 117.00 437.50 112.50 Q 442.00 108.00 445.50 105.50 Q 449.00 103.00 455.00 100.00 Q 461.00 97.00 462.00 97.00 Q 463.00 97.00 464.50 96.00 Q 466.00 95.00 470.50 93.50 Q 475.00 92.00 476.50 92.00 Q 478.00 92.00 478.50 91.50 Q 479.00 91.00 480.50 91.00 Q 482.00 91.00 486.50 89.50 Q 491.00 88.00 495.50 87.50 Q 500.00 87.00 500.50 86.50 Q 501.00 86.00 506.50 85.50 Q 512.00 85.00 512.50 84.50 Q 513.00 84.00 520.50 83.50 Q 528.00 83.00 528.50 82.50 Q 529.00 82.00 534.00 82.00 Q 539.00 82.00 539.50 81.50 Q 540.00 81.00 549.00 81.00 Q 558.00 81.00 558.50 80.50 Q 559.00 80.00 586.00 81.00 Q 613.00 82.00 613.50 82.50 Q 614.00 83.00 623.00 83.50 Q 632.00 84.00 632.50 84.50 Q 633.00 85.00 636.00 85.00 Q 639.00 85.00 639.50 85.50 Q 640.00 86.00 648.50 87.00 Q 657.00 88.00 659.50 89.00 Q 662.00 90.00 664.00 90.00 Q 666.00 90.00 666.50 90.50 Q 667.00 91.00 669.00 91.00 Q 671.00 91.00 671.50 91.50 Q 672.00 92.00 674.00 92.00 Q 676.00 92.00 676.50 92.50 Q 677.00 93.00 680.50 93.50 Q 684.00 94.00 686.00 95.00 Q 688.00 96.00 689.50 96.00 Q 691.00 96.00 698.50 98.50 Q 706.00 101.00 711.00 103.50 Q 716.00 106.00 721.00 109.50 Q 726.00 113.00 729.00 116.00 Q 732.00 119.00 735.00 123.50 Q 738.00 128.00 739.50 132.50 Q 741.00 137.00 741.50 143.50 Q 742.00 150.00 741.50 150.50 Q 741.00 151.00 740.50 155.50 Q 740.00 160.00 737.00 165.00 Q 734.00 170.00 730.50 173.00 Q 727.00 176.00 722.00 178.00 Q 717.00 180.00 710.50 180.50 Q 704.00 181.00 703.50 181.50 Q 703.00 182.00 691.50 181.50 Q 680.00 181.00 679.50 180.50 Q 679.00 180.00 676.00 180.00 Q 673.00 180.00 672.50 179.50 Q 672.00 179.00 664.00 178.00 Q 656.00 177.00 653.50 176.00 Q 651.00 175.00 648.50 175.00 Q 646.00 175.00 645.50 174.50 Q 645.00 174.00 641.00 173.50 Q 637.00 173.00 636.50 172.50 Q 636.00 172.00 634.50 172.00 Q 633.00 172.00 632.50 171.50 Q 632.00 171.00 630.50 171.00 Q 629.00 171.00 624.50 169.50 Q 620.00 168.00 618.00 168.00 Q 616.00 168.00 613.50 167.00 Q 611.00 166.00 609.00 166.00 Q 607.00 166.00 604.50 165.00 Q 602.00 164.00 599.50 164.00 Q 597.00 164.00 596.50 163.50 Q 596.00 163.00 593.50 163.00 Q 591.00 163.00 590.50 162.50 Q 590.00 162.00 586.50 162.00 Q 583.00 162.00 582.50 161.50 Q 582.00 161.00 570.00 161.00 Q 558.00 161.00 557.50 161.50 Q 557.00 162.00 555.00 162.00 Q 553.00 162.00 552.50 162.50 Q 552.00 163.00 549.00 163.50 Q 546.00 164.00 541.00 167.00 Q 536.00 170.00 534.00 172.50 Q 532.00 175.00 530.50 178.00 Q 529.00 181.00 528.50 186.50 Q 528.00 192.00 528.50 192.50 Q 529.00 193.00 529.00 194.50 Q 529.00 196.00 531.00 199.50 Q 533.00 203.00 535.00 205.00 Q 537.00 207.00 540.00 208.50 Q 543.00 210.00 546.50 210.50 Q 550.00 211.00 550.50 211.50 Q 551.00 212.00 561.00 211.50 Q 571.00 211.00 571.50 210.50 Q 572.00 210.00 574.50 210.00 Q 577.00 210.00 577.50 209.50 Q 578.00 209.00 579.50 209.00 Q 581.00 209.00 581.50 208.50 Q 582.00 208.00 583.50 208.00 Q 585.00 208.00 585.50 207.50 Q 586.00 207.00 587.50 207.00 Q 589.00 207.00 589.50 206.50 Q 590.00 206.00 591.50 206.00 Q 593.00 206.00 593.50 205.50 Q 594.00 205.00 595.50 205.00 Q 597.00 205.00 597.50 204.50 Q 598.00 204.00 599.50 204.00 Q 601.00 204.00 605.50 202.50 Q 610.00 201.00 612.00 201.00 Q 614.00 201.00 614.50 200.50 Q 615.00 200.00 619.50 199.50 Q 624.00 199.00 624.50 198.50 Q 625.00 198.00 628.00 198.00 Q 631.00 198.00 631.50 197.50 Q 632.00 197.00 643.00 196.50 Q 654.00 196.00 654.50 196.50 Q 655.00 197.00 662.00 197.50 Q 669.00 198.00 669.50 198.50 Q 670.00 199.00 673.50 199.50 Q 677.00 200.00 681.50 202.00 Q 686.00 204.00 689.00 206.00 Q 692.00 208.00 695.50 211.50 Q 699.00 215.00 701.00 218.50 Q 703.00 222.00 704.00 225.00 Q 705.00 228.00 705.50 235.00 Q 706.00 242.00 705.50 242.50 Q 705.00 243.00 705.00 245.50 Q 705.00 248.00 704.00 251.00 Q 703.00 254.00 701.00 257.50 Q 699.00 261.00 695.00 265.00 Q 691.00 269.00 686.00 271.50 Q 681.00 274.00 679.50 274.00 Q 678.00 274.00 675.50 275.00 Q 673.00 276.00 669.00 276.00 Q 665.00 276.00 664.50 276.50 Q 664.00 277.00 653.50 277.00 Q 643.00 277.00 642.50 276.50 Q 642.00 276.00 634.50 275.50 Q 627.00 275.00 626.50 274.50 Q 626.00 274.00 623.50 274.00 Q 621.00 274.00 620.50 273.50 Q 620.00 273.00 617.50 273.00 Q 615.00 273.00 614.50 272.50 Q 614.00 272.00 611.50 272.00 Q 609.00 272.00 608.50 271.50 Q 608.00 271.00 603.00 270.50 Q 598.00 270.00 597.50 269.50 Q 597.00 269.00 594.00 269.00 Q 591.00 269.00 590.50 268.50 Q 590.00 268.00 586.00 268.00 Q 582.00 268.00 581.50 267.50 Q 581.00 267.00 570.50 267.00 Q 560.00 267.00 559.50 267.50 Q 559.00 268.00 557.00 268.00 Q 555.00 268.00 554.50 268.50 Q 554.00 269.00 551.00 269.50 Q 548.00 270.00 544.50 272.00 Q 541.00 274.00 537.50 277.50 Q 534.00 281.00 532.00 286.00 Q 530.00 291.00 530.00 297.00 Q 530.00 303.00 531.50 306.50 Q 533.00 310.00 536.00 313.50 Q 539.00 317.00 542.50 319.00 Q 546.00 321.00 549.50 321.50 Q 553.00 322.00 553.50 322.50 Q 554.00 323.00 563.00 323.00 Q 572.00 323.00 572.50 322.50 Q 573.00 322.00 576.00 322.00 Q 579.00 322.00 579.50 321.50 Q 580.00 321.00 585.50 320.00 Q 591.00 319.00 593.00 318.00 Q 595.00 317.00 596.50 317.00 Q 598.00 317.00 601.50 315.50 Q 605.00 314.00 606.50 314.00 Q 608.00 314.00 611.50 312.50 Q 615.00 311.00 616.50 311.00 Q 618.00 311.00 620.00 310.00 Q 622.00 309.00 623.50 309.00 Q 625.00 309.00 625.50 308.50 Q 626.00 308.00 627.50 308.00 Q 629.00 308.00 633.50 306.50 Q 638.00 305.00 645.00 304.00 Q 652.00 303.00 652.50 302.50 Q 653.00 302.00 656.50 302.00 Q 660.00 302.00 660.50 301.50 Q 661.00 301.00 677.00 301.00 Q 693.00 301.00 693.50 301.50 Q 694.00 302.00 697.00 302.00 Q 700.00 302.00 700.50 302.50 Q 701.00 303.00 703.00 303.00 Q 705.00 303.00 705.50 303.50 Q 706.00 304.00 707.50 304.00 Q 709.00 304.00 716.50 307.00 Q 724.00 310.00 727.50 312.50 Q 731.00 315.00 735.00 319.00 Q 739.00 323.00 742.50 329.00 Q 746.00 335.00 747.00 338.00 Q 748.00 341.00 748.00 343.00 Q 748.00 345.00 748.50 345.50 Q 749.00 346.00 749.00 354.00 Q 749.00 362.00 748.50 362.50 Q 748.00 363.00 748.00 365.00 Q 748.00 367.00 747.00 370.00 Q 746.00 373.00 743.50 377.50 Q 741.00 382.00 735.50 387.00 Q 730.00 392.00 725.50 394.00 Q 721.00 396.00 719.50 396.00 Q 718.00 396.00 715.50 397.00 Q 713.00 398.00 710.50 398.00 Q 708.00 398.00 707.50 398.50 Q 707.00 399.00 694.50 399.00 Q 682.00 399.00 681.50 398.50 Q 681.00 398.00 677.00 398.00 Q 673.00 398.00 672.50 397.50 Q 672.00 397.00 668.50 397.00 Q 665.00 397.00 664.50 396.50 Q 664.00 396.00 661.00 396.00 Q 658.00 396.00 657.50 395.50 Q 657.00 395.00 654.00 395.00 Q 651.00 395.00 650.50 394.50 Q 650.00 394.00 642.00 393.50 Q 634.00 393.00 633.50 392.50 Q 633.00 392.00 627.00 392.00 Q 621.00 392.00 620.50 391.50 Q 620.00 391.00 599.50 391.50 Q 579.00 392.00 578.50 392.50 Q 578.00 393.00 574.00 393.00 Q 570.00 393.00 569.50 393.50 Q 569.00 394.00 565.50 394.00 Q 562.00 394.00 561.50 394.50 Q 561.00 395.00 557.00 395.00 Q 553.00 395.00 552.50 395.50 Q 552.00 396.00 548.00 396.00 Q 544.00 396.00 543.50 396.50 Q 543.00 397.00 539.00 397.00 Q 535.00 397.00 534.50 397.50 Q 534.00 398.00 527.00 398.00 Q 520.00 398.00 519.50 398.50 Q 519.00 399.00 505.50 399.00 Q 492.00 399.00 491.50 398.50 Q 491.00 398.00 486.50 398.00 Q 482.00 398.00 481.50 397.50 Q 481.00 397.00 474.00 396.50 Q 467.00 396.00 466.50 395.50 Q 466.00 395.00 460.50 394.00 Q 455.00 393.00 452.00 391.50 Q 449.00 390.00 446.50 389.50 Q 444.00 389.00 437.50 385.00 Q 431.00 381.00 426.00 375.50 Q 421.00 370.00 419.00 365.50 Q 417.00 361.00 417.00 359.00 Q 417.00 357.00 416.50 356.50 Q 416.00 356.00 416.00 348.00 Q 416.00 340.00 416.50 339.50 Q 417.00 339.00 417.00 336.50 Q 417.00 334.00 417.50 333.50 Q 418.00 333.00 419.00 327.50 Q 420.00 322.00 422.50 315.00 Q 425.00 308.00 425.00 306.50 Q 425.00 305.00 426.00 303.00 Q 427.00 301.00 427.00 299.50 Q 427.00 298.00 427.50 297.50 Q 428.00 297.00 428.00 295.50 Q 428.00 294.00 428.50 293.50 Q 429.00 293.00 429.00 291.50 Q 429.00 290.00 430.50 285.50 Q 432.00 281.00 432.00 279.00 Q 432.00 277.00 433.00 274.00 Q 434.00 271.00 434.00 268.00 Q 434.00 265.00 434.50 264.50 Q 435.00 264.00 435.00 260.00 Q 435.00 256.00 435.50 255.50 Q 436.00 255.00 436.00 235.50 Q 436.00 216.00 435.50 215.50 Q 435.00 215.00 434.50 208.00 Q 434.00 201.00 433.50 200.50 Q 433.00 200.00 432.00 193.00 Q 431.00 186.00 430.50 185.50 Q 430.00 185.00 429.00 178.50 Q 428.00 172.00 427.50 171.50 Q 427.00 171.00 427.00 169.00 Q 427.00 167.00 426.50 166.50 Q 426.00 166.00 425.50 160.50 Q 425.00 155.00 424.50 154.50 Q 424.00 154.00 424.00 147.00 Q 424.00 140.00 424.50 139.50 Q 425.00 139.00 425.00 136.50 Q 425.00 134.00 426.00 131.00 Q 427.00 128.00 430.00 122.50 Z" fill="#FFFFFF"/>
<path id="shape-4" d="M 247.00 383.50 Q 252.00 379.00 259.50 375.50 Q 267.00 372.00 268.50 372.00 Q 270.00 372.00 274.50 370.50 Q 279.00 369.00 281.00 369.00 Q 283.00 369.00 283.50 368.50 Q 284.00 368.00 286.00 368.00 Q 288.00 368.00 288.50 367.50 Q 289.00 367.00 293.00 367.00 Q 297.00 367.00 297.50 366.50 Q 298.00 366.00 315.00 366.00 Q 332.00 366.00 332.50 366.50 Q 333.00 367.00 337.00 367.00 Q 341.00 367.00 341.50 367.50 Q 342.00 368.00 347.00 368.50 Q 352.00 369.00 352.50 369.50 Q 353.00 370.00 360.50 371.50 Q 368.00 373.00 369.50 374.00 Q 371.00 375.00 373.50 375.50 Q 376.00 376.00 381.00 378.50 Q 386.00 381.00 387.00 381.00 Q 388.00 381.00 394.00 384.00 Q 400.00 387.00 404.50 390.00 Q 409.00 393.00 422.50 399.50 Q 436.00 406.00 455.50 411.50 Q 475.00 417.00 481.00 420.50 Q 487.00 424.00 490.00 427.50 Q 493.00 431.00 494.50 434.00 Q 496.00 437.00 497.00 440.00 Q 498.00 443.00 498.00 445.50 Q 498.00 448.00 498.50 448.50 Q 499.00 449.00 498.50 458.50 Q 498.00 468.00 497.50 468.50 Q 497.00 469.00 497.00 470.50 Q 497.00 472.00 495.50 476.50 Q 494.00 481.00 491.50 485.50 Q 489.00 490.00 486.00 493.50 Q 483.00 497.00 481.00 498.50 Q 479.00 500.00 473.00 502.50 Q 467.00 505.00 464.00 505.00 Q 461.00 505.00 460.50 505.50 Q 460.00 506.00 453.50 505.50 Q 447.00 505.00 438.00 502.00 Q 429.00 499.00 418.00 491.50 Q 407.00 484.00 392.50 471.50 Q 378.00 459.00 375.00 457.00 Q 372.00 455.00 367.00 453.00 Q 362.00 451.00 357.00 451.00 Q 352.00 451.00 349.50 452.00 Q 347.00 453.00 345.00 455.00 Q 343.00 457.00 341.50 461.00 Q 340.00 465.00 340.00 472.50 Q 340.00 480.00 340.50 480.50 Q 341.00 481.00 341.50 485.00 Q 342.00 489.00 344.50 494.50 Q 347.00 500.00 347.00 501.00 Q 347.00 502.00 350.50 507.50 Q 354.00 513.00 360.00 518.50 Q 366.00 524.00 370.00 526.00 Q 374.00 528.00 377.00 528.50 Q 380.00 529.00 380.50 529.50 Q 381.00 530.00 383.00 530.00 Q 385.00 530.00 385.50 530.50 Q 386.00 531.00 393.50 531.00 Q 401.00 531.00 401.50 530.50 Q 402.00 530.00 405.00 530.00 Q 408.00 530.00 408.50 529.50 Q 409.00 529.00 411.50 529.00 Q 414.00 529.00 414.50 528.50 Q 415.00 528.00 423.00 527.00 Q 431.00 526.00 431.50 525.50 Q 432.00 525.00 435.50 525.00 Q 439.00 525.00 439.50 524.50 Q 440.00 524.00 447.50 524.00 Q 455.00 524.00 455.50 524.50 Q 456.00 525.00 459.00 525.00 Q 462.00 525.00 462.50 525.50 Q 463.00 526.00 464.50 526.00 Q 466.00 526.00 469.00 527.00 Q 472.00 528.00 476.50 530.50 Q 481.00 533.00 485.50 538.00 Q 490.00 543.00 492.50 548.00 Q 495.00 553.00 495.00 554.50 Q 495.00 556.00 496.00 558.50 Q 497.00 561.00 497.00 564.50 Q 497.00 568.00 497.50 568.50 Q 498.00 569.00 498.00 574.50 Q 498.00 580.00 497.50 580.50 Q 497.00 581.00 496.50 587.50 Q 496.00 594.00 493.50 600.00 Q 491.00 606.00 488.00 609.50 Q 485.00 613.00 481.50 615.50 Q 478.00 618.00 472.50 620.00 Q 467.00 622.00 458.00 622.00 Q 449.00 622.00 448.50 621.50 Q 448.00 621.00 446.00 621.00 Q 444.00 621.00 442.00 620.00 Q 440.00 619.00 438.50 619.00 Q 437.00 619.00 428.50 615.00 Q 420.00 611.00 419.00 611.00 Q 418.00 611.00 414.50 609.00 Q 411.00 607.00 405.00 605.00 Q 399.00 603.00 397.00 603.00 Q 395.00 603.00 394.50 602.50 Q 394.00 602.00 388.50 602.00 Q 383.00 602.00 378.00 604.00 Q 373.00 606.00 371.00 608.00 Q 369.00 610.00 367.00 613.50 Q 365.00 617.00 364.50 620.00 Q 364.00 623.00 363.50 623.50 Q 363.00 624.00 363.00 630.00 Q 363.00 636.00 363.50 636.50 Q 364.00 637.00 364.50 640.50 Q 365.00 644.00 366.50 647.00 Q 368.00 650.00 371.00 653.50 Q 374.00 657.00 376.50 658.50 Q 379.00 660.00 382.00 661.00 Q 385.00 662.00 392.50 662.00 Q 400.00 662.00 402.00 661.00 Q 404.00 660.00 405.50 660.00 Q 407.00 660.00 420.00 653.50 Q 433.00 647.00 437.50 645.50 Q 442.00 644.00 443.50 644.00 Q 445.00 644.00 445.50 643.50 Q 446.00 643.00 448.00 643.00 Q 450.00 643.00 450.50 642.50 Q 451.00 642.00 456.00 642.00 Q 461.00 642.00 461.50 642.50 Q 462.00 643.00 464.00 643.00 Q 466.00 643.00 469.00 644.00 Q 472.00 645.00 475.50 647.00 Q 479.00 649.00 483.00 653.00 Q 487.00 657.00 489.00 660.00 Q 491.00 663.00 491.50 665.00 Q 492.00 667.00 493.50 669.50 Q 495.00 672.00 496.00 677.00 Q 497.00 682.00 497.50 682.50 Q 498.00 683.00 498.00 685.50 Q 498.00 688.00 498.50 688.50 Q 499.00 689.00 499.00 691.50 Q 499.00 694.00 499.50 694.50 Q 500.00 695.00 500.00 698.00 Q 500.00 701.00 500.50 701.50 Q 501.00 702.00 501.50 711.50 Q 502.00 721.00 501.50 721.50 Q 501.00 722.00 500.50 732.00 Q 500.00 742.00 499.50 742.50 Q 499.00 743.00 499.00 745.00 Q 499.00 747.00 497.50 751.50 Q 496.00 756.00 492.50 762.00 Q 489.00 768.00 484.50 772.00 Q 480.00 776.00 474.00 778.50 Q 468.00 781.00 462.00 781.50 Q 456.00 782.00 455.50 782.50 Q 455.00 783.00 445.00 782.50 Q 435.00 782.00 428.00 779.50 Q 421.00 777.00 419.50 776.00 Q 418.00 775.00 412.00 768.50 Q 406.00 762.00 400.00 748.00 Q 394.00 734.00 392.00 731.00 Q 390.00 728.00 385.00 723.00 Q 380.00 718.00 372.50 713.50 Q 365.00 709.00 364.00 709.00 Q 363.00 709.00 360.50 707.50 Q 358.00 706.00 357.00 706.00 Q 356.00 706.00 354.50 705.00 Q 353.00 704.00 350.50 703.50 Q 348.00 703.00 346.50 702.00 Q 345.00 701.00 342.50 700.50 Q 340.00 700.00 338.50 699.00 Q 337.00 698.00 336.00 698.00 Q 335.00 698.00 333.50 697.00 Q 332.00 696.00 327.50 694.50 Q 323.00 693.00 317.00 689.00 Q 311.00 685.00 307.50 681.50 Q 304.00 678.00 302.00 675.00 Q 300.00 672.00 298.00 667.50 Q 296.00 663.00 295.50 659.00 Q 295.00 655.00 294.50 654.50 Q 294.00 654.00 294.00 651.00 Q 294.00 648.00 293.50 647.50 Q 293.00 647.00 293.00 640.00 Q 293.00 633.00 293.50 632.50 Q 294.00 632.00 294.50 624.50 Q 295.00 617.00 295.50 616.50 Q 296.00 616.00 297.00 606.50 Q 298.00 597.00 298.50 596.50 Q 299.00 596.00 299.00 590.00 Q 299.00 584.00 299.50 583.50 Q 300.00 583.00 300.00 571.50 Q 300.00 560.00 299.50 559.50 Q 299.00 559.00 299.00 554.00 Q 299.00 549.00 298.50 548.50 Q 298.00 548.00 298.00 544.50 Q 298.00 541.00 297.50 540.50 Q 297.00 540.00 296.50 535.50 Q 296.00 531.00 295.50 530.50 Q 295.00 530.00 294.50 526.50 Q 294.00 523.00 291.00 514.00 Q 288.00 505.00 284.00 497.00 Q 280.00 489.00 280.00 488.00 Q 280.00 487.00 279.00 486.00 Q 278.00 485.00 276.50 481.50 Q 275.00 478.00 274.00 477.00 Q 273.00 476.00 272.00 473.50 Q 271.00 471.00 267.50 466.00 Q 264.00 461.00 263.50 459.50 Q 263.00 458.00 260.50 455.00 Q 258.00 452.00 257.50 450.50 Q 257.00 449.00 254.50 446.00 Q 252.00 443.00 251.50 441.50 Q 251.00 440.00 247.50 435.00 Q 244.00 430.00 242.00 425.50 Q 240.00 421.00 239.00 416.00 Q 238.00 411.00 237.50 410.50 Q 237.00 410.00 237.00 405.00 Q 237.00 400.00 237.50 399.50 Q 238.00 399.00 238.00 397.50 Q 238.00 396.00 240.00 392.00 Q 242.00 388.00 247.00 383.50 Z" fill="#FFFFFF"/>
<path id="shape-3" d="M 583.50 414.50 Q 584.00 414.00 590.00 413.50 Q 596.00 413.00 596.50 412.50 Q 597.00 412.00 603.50 412.00 Q 610.00 412.00 610.50 411.50 Q 611.00 411.00 623.00 411.50 Q 635.00 412.00 635.50 412.50 Q 636.00 413.00 639.00 413.00 Q 642.00 413.00 642.50 413.50 Q 643.00 414.00 645.50 414.00 Q 648.00 414.00 648.50 414.50 Q 649.00 415.00 651.00 415.00 Q 653.00 415.00 653.50 415.50 Q 654.00 416.00 657.50 416.50 Q 661.00 417.00 664.50 418.50 Q 668.00 420.00 671.00 420.50 Q 674.00 421.00 678.00 423.00 Q 682.00 425.00 683.00 425.00 Q 684.00 425.00 695.00 431.00 Q 706.00 437.00 714.00 444.00 Q 722.00 451.00 727.50 458.50 Q 733.00 466.00 735.50 471.00 Q 738.00 476.00 739.50 480.50 Q 741.00 485.00 741.00 486.50 Q 741.00 488.00 741.50 488.50 Q 742.00 489.00 743.00 498.00 Q 744.00 507.00 743.50 507.50 Q 743.00 508.00 742.50 515.00 Q 742.00 522.00 741.00 525.00 Q 740.00 528.00 737.50 532.50 Q 735.00 537.00 731.00 541.00 Q 727.00 545.00 722.50 547.50 Q 718.00 550.00 715.00 550.50 Q 712.00 551.00 711.50 551.50 Q 711.00 552.00 703.50 552.00 Q 696.00 552.00 695.50 551.50 Q 695.00 551.00 691.50 550.50 Q 688.00 550.00 682.50 547.50 Q 677.00 545.00 674.00 543.00 Q 671.00 541.00 665.00 535.50 Q 659.00 530.00 655.50 525.00 Q 652.00 520.00 651.00 517.50 Q 650.00 515.00 646.50 509.50 Q 643.00 504.00 641.00 502.00 Q 639.00 500.00 635.00 497.50 Q 631.00 495.00 628.00 494.50 Q 625.00 494.00 624.50 493.50 Q 624.00 493.00 619.00 493.00 Q 614.00 493.00 613.50 493.50 Q 613.00 494.00 610.00 494.50 Q 607.00 495.00 603.00 498.00 Q 599.00 501.00 597.50 503.50 Q 596.00 506.00 595.00 509.00 Q 594.00 512.00 594.00 516.00 Q 594.00 520.00 596.00 525.00 Q 598.00 530.00 599.00 531.50 Q 600.00 533.00 605.00 537.50 Q 610.00 542.00 611.50 542.50 Q 613.00 543.00 616.50 545.50 Q 620.00 548.00 623.00 549.00 Q 626.00 550.00 629.50 552.00 Q 633.00 554.00 634.00 554.00 Q 635.00 554.00 637.50 555.50 Q 640.00 557.00 641.00 557.00 Q 642.00 557.00 643.50 558.00 Q 645.00 559.00 646.00 559.00 Q 647.00 559.00 648.50 560.00 Q 650.00 561.00 651.00 561.00 Q 652.00 561.00 653.50 562.00 Q 655.00 563.00 656.00 563.00 Q 657.00 563.00 658.50 564.00 Q 660.00 565.00 666.00 567.00 Q 672.00 569.00 674.50 570.50 Q 677.00 572.00 678.00 572.00 Q 679.00 572.00 682.50 574.00 Q 686.00 576.00 687.00 576.00 Q 688.00 576.00 690.00 577.50 Q 692.00 579.00 696.50 581.00 Q 701.00 583.00 707.50 587.50 Q 714.00 592.00 721.50 599.50 Q 729.00 607.00 732.50 612.00 Q 736.00 617.00 737.00 619.50 Q 738.00 622.00 739.00 623.00 Q 740.00 624.00 740.00 625.00 Q 740.00 626.00 741.00 627.50 Q 742.00 629.00 744.00 635.00 Q 746.00 641.00 746.00 643.00 Q 746.00 645.00 747.00 648.00 Q 748.00 651.00 748.00 654.50 Q 748.00 658.00 748.50 658.50 Q 749.00 659.00 749.00 669.00 Q 749.00 679.00 748.50 679.50 Q 748.00 680.00 748.00 683.50 Q 748.00 687.00 747.50 687.50 Q 747.00 688.00 747.00 690.50 Q 747.00 693.00 745.00 699.00 Q 743.00 705.00 743.00 706.50 Q 743.00 708.00 739.00 717.00 Q 735.00 726.00 728.50 735.00 Q 722.00 744.00 718.00 748.00 Q 714.00 752.00 709.50 755.50 Q 705.00 759.00 697.00 763.50 Q 689.00 768.00 677.00 772.00 Q 665.00 776.00 659.50 776.50 Q 654.00 777.00 653.50 777.50 Q 653.00 778.00 647.50 778.00 Q 642.00 778.00 641.50 778.50 Q 641.00 779.00 628.50 778.50 Q 616.00 778.00 615.50 777.50 Q 615.00 777.00 612.00 777.00 Q 609.00 777.00 608.50 776.50 Q 608.00 776.00 606.00 776.00 Q 604.00 776.00 603.50 775.50 Q 603.00 775.00 601.00 775.00 Q 599.00 775.00 595.00 773.50 Q 591.00 772.00 589.50 772.00 Q 588.00 772.00 586.50 771.00 Q 585.00 770.00 582.50 769.50 Q 580.00 769.00 573.50 766.00 Q 567.00 763.00 566.00 762.00 Q 565.00 761.00 561.00 759.00 Q 557.00 757.00 552.00 753.00 Q 547.00 749.00 539.50 741.00 Q 532.00 733.00 529.00 728.50 Q 526.00 724.00 522.00 716.00 Q 518.00 708.00 517.00 705.00 Q 516.00 702.00 516.00 700.50 Q 516.00 699.00 515.00 697.00 Q 514.00 695.00 514.00 693.50 Q 514.00 692.00 513.50 691.50 Q 513.00 691.00 512.50 684.50 Q 512.00 678.00 511.50 677.50 Q 511.00 677.00 511.00 669.50 Q 511.00 662.00 511.50 661.50 Q 512.00 661.00 512.00 658.50 Q 512.00 656.00 512.50 655.50 Q 513.00 655.00 513.00 653.50 Q 513.00 652.00 514.00 649.00 Q 515.00 646.00 517.00 642.50 Q 519.00 639.00 522.00 635.50 Q 525.00 632.00 531.00 628.50 Q 537.00 625.00 540.00 624.50 Q 543.00 624.00 543.50 623.50 Q 544.00 623.00 553.00 623.00 Q 562.00 623.00 562.50 623.50 Q 563.00 624.00 565.00 624.00 Q 567.00 624.00 570.00 625.50 Q 573.00 627.00 574.00 627.00 Q 575.00 627.00 579.00 629.50 Q 583.00 632.00 588.50 637.50 Q 594.00 643.00 602.00 656.50 Q 610.00 670.00 613.50 673.00 Q 617.00 676.00 620.00 677.50 Q 623.00 679.00 626.00 680.00 Q 629.00 681.00 634.50 681.00 Q 640.00 681.00 640.50 680.50 Q 641.00 680.00 644.00 679.50 Q 647.00 679.00 649.50 677.50 Q 652.00 676.00 654.00 674.00 Q 656.00 672.00 658.00 668.50 Q 660.00 665.00 660.00 663.50 Q 660.00 662.00 660.50 661.50 Q 661.00 661.00 661.00 655.00 Q 661.00 649.00 659.50 645.00 Q 658.00 641.00 654.50 636.50 Q 651.00 632.00 643.00 626.50 Q 635.00 621.00 631.00 619.00 Q 627.00 617.00 626.00 617.00 Q 625.00 617.00 620.50 614.50 Q 616.00 612.00 615.00 612.00 Q 614.00 612.00 611.50 610.50 Q 609.00 609.00 604.50 607.50 Q 600.00 606.00 596.50 604.00 Q 593.00 602.00 592.00 602.00 Q 591.00 602.00 587.50 600.00 Q 584.00 598.00 583.00 598.00 Q 582.00 598.00 572.50 593.00 Q 563.00 588.00 556.00 583.50 Q 549.00 579.00 546.50 577.00 Q 544.00 575.00 535.50 566.00 Q 527.00 557.00 523.50 551.50 Q 520.00 546.00 517.00 539.00 Q 514.00 532.00 514.00 530.50 Q 514.00 529.00 513.00 526.50 Q 512.00 524.00 512.00 522.00 Q 512.00 520.00 511.50 519.50 Q 511.00 519.00 511.00 516.00 Q 511.00 513.00 510.50 512.50 Q 510.00 512.00 510.00 503.00 Q 510.00 494.00 510.50 493.50 Q 511.00 493.00 511.00 490.00 Q 511.00 487.00 511.50 486.50 Q 512.00 486.00 512.00 484.00 Q 512.00 482.00 512.50 481.50 Q 513.00 481.00 513.50 477.50 Q 514.00 474.00 516.00 469.50 Q 518.00 465.00 518.00 464.00 Q 518.00 463.00 519.00 462.00 Q 520.00 461.00 521.50 457.50 Q 523.00 454.00 529.50 446.00 Q 536.00 438.00 544.00 432.00 Q 552.00 426.00 559.50 422.50 Q 567.00 419.00 571.50 417.50 Q 576.00 416.00 579.50 415.50 Q 583.00 415.00 583.50 414.50 Z" fill="#FFFFFF"/>
<path id="shape-1" d="M 106.00 488.50 Q 109.00 485.00 112.50 482.50 Q 116.00 480.00 120.00 478.00 Q 124.00 476.00 127.00 475.00 Q 130.00 474.00 131.50 474.00 Q 133.00 474.00 133.50 473.50 Q 134.00 473.00 138.50 472.50 Q 143.00 472.00 143.50 471.50 Q 144.00 471.00 147.50 471.00 Q 151.00 471.00 151.50 470.50 Q 152.00 470.00 169.50 470.00 Q 187.00 470.00 187.50 470.50 Q 188.00 471.00 192.00 471.00 Q 196.00 471.00 196.50 471.50 Q 197.00 472.00 202.00 472.50 Q 207.00 473.00 207.50 473.50 Q 208.00 474.00 209.50 474.00 Q 211.00 474.00 213.00 475.00 Q 215.00 476.00 218.00 476.50 Q 221.00 477.00 230.50 481.50 Q 240.00 486.00 246.00 490.50 Q 252.00 495.00 257.00 500.00 Q 262.00 505.00 266.50 511.50 Q 271.00 518.00 274.50 526.00 Q 278.00 534.00 278.00 535.50 Q 278.00 537.00 278.50 537.50 Q 279.00 538.00 279.00 539.50 Q 279.00 541.00 280.50 545.50 Q 282.00 550.00 282.00 553.50 Q 282.00 557.00 282.50 557.50 Q 283.00 558.00 283.00 569.00 Q 283.00 580.00 282.50 580.50 Q 282.00 581.00 281.50 587.50 Q 281.00 594.00 278.00 603.00 Q 275.00 612.00 273.00 616.00 Q 271.00 620.00 267.50 625.00 Q 264.00 630.00 256.00 638.00 Q 248.00 646.00 246.50 650.00 Q 245.00 654.00 245.50 657.50 Q 246.00 661.00 249.00 666.00 Q 252.00 671.00 254.50 674.00 Q 257.00 677.00 263.50 683.00 Q 270.00 689.00 275.00 692.50 Q 280.00 696.00 292.00 702.00 Q 304.00 708.00 306.50 708.50 Q 309.00 709.00 310.50 710.00 Q 312.00 711.00 319.50 713.50 Q 327.00 716.00 332.00 717.00 Q 337.00 718.00 343.00 720.00 Q 349.00 722.00 351.50 723.50 Q 354.00 725.00 355.00 725.00 Q 356.00 725.00 360.50 727.50 Q 365.00 730.00 369.00 733.00 Q 373.00 736.00 376.00 740.00 Q 379.00 744.00 380.00 747.00 Q 381.00 750.00 381.00 755.00 Q 381.00 760.00 379.50 763.50 Q 378.00 767.00 374.50 771.00 Q 371.00 775.00 365.00 778.50 Q 359.00 782.00 356.00 783.00 Q 353.00 784.00 351.50 784.00 Q 350.00 784.00 349.50 784.50 Q 349.00 785.00 347.00 785.00 Q 345.00 785.00 344.50 785.50 Q 344.00 786.00 337.50 786.50 Q 331.00 787.00 330.50 787.50 Q 330.00 788.00 317.50 788.00 Q 305.00 788.00 304.50 787.50 Q 304.00 787.00 300.00 787.00 Q 296.00 787.00 295.50 786.50 Q 295.00 786.00 292.50 786.00 Q 290.00 786.00 289.50 785.50 Q 289.00 785.00 286.50 785.00 Q 284.00 785.00 283.50 784.50 Q 283.00 784.00 279.50 783.50 Q 276.00 783.00 271.50 781.00 Q 267.00 779.00 266.00 779.00 Q 265.00 779.00 258.00 775.50 Q 251.00 772.00 244.00 766.50 Q 237.00 761.00 230.50 753.00 Q 224.00 745.00 219.50 735.50 Q 215.00 726.00 212.50 718.50 Q 210.00 711.00 209.50 707.00 Q 209.00 703.00 208.50 702.50 Q 208.00 702.00 208.00 700.50 Q 208.00 699.00 207.50 698.50 Q 207.00 698.00 207.00 696.50 Q 207.00 695.00 206.00 693.00 Q 205.00 691.00 205.00 689.50 Q 205.00 688.00 204.00 685.00 Q 203.00 682.00 200.50 677.50 Q 198.00 673.00 194.00 669.50 Q 190.00 666.00 185.50 666.00 Q 181.00 666.00 180.00 666.50 Q 179.00 667.00 177.50 668.50 Q 176.00 670.00 175.00 672.50 Q 174.00 675.00 174.00 681.00 Q 174.00 687.00 174.50 687.50 Q 175.00 688.00 175.50 691.50 Q 176.00 695.00 177.50 699.50 Q 179.00 704.00 180.00 705.50 Q 181.00 707.00 181.00 708.00 Q 181.00 709.00 182.00 710.50 Q 183.00 712.00 183.00 713.00 Q 183.00 714.00 184.00 715.50 Q 185.00 717.00 187.00 723.00 Q 189.00 729.00 189.00 730.50 Q 189.00 732.00 190.00 734.50 Q 191.00 737.00 191.00 739.50 Q 191.00 742.00 191.50 742.50 Q 192.00 743.00 192.00 750.00 Q 192.00 757.00 191.50 757.50 Q 191.00 758.00 191.00 760.00 Q 191.00 762.00 189.00 766.00 Q 187.00 770.00 182.50 774.00 Q 178.00 778.00 174.00 779.50 Q 170.00 781.00 168.50 781.00 Q 167.00 781.00 166.50 781.50 Q 166.00 782.00 158.00 782.00 Q 150.00 782.00 149.50 781.50 Q 149.00 781.00 144.50 780.50 Q 140.00 780.00 135.50 778.00 Q 131.00 776.00 130.00 776.00 Q 129.00 776.00 124.50 773.00 Q 120.00 770.00 115.00 765.00 Q 110.00 760.00 107.00 755.50 Q 104.00 751.00 103.50 749.00 Q 103.00 747.00 101.50 744.50 Q 100.00 742.00 99.00 739.00 Q 98.00 736.00 98.00 734.50 Q 98.00 733.00 97.50 732.50 Q 97.00 732.00 97.00 730.50 Q 97.00 729.00 96.50 728.50 Q 96.00 728.00 95.50 721.00 Q 95.00 714.00 94.50 713.50 Q 94.00 713.00 94.00 702.50 Q 94.00 692.00 94.50 691.50 Q 95.00 691.00 95.00 686.50 Q 95.00 682.00 95.50 681.50 Q 96.00 681.00 96.00 677.50 Q 96.00 674.00 96.50 673.50 Q 97.00 673.00 97.00 670.00 Q 97.00 667.00 97.50 666.50 Q 98.00 666.00 98.00 663.50 Q 98.00 661.00 98.50 660.50 Q 99.00 660.00 99.00 657.50 Q 99.00 655.00 99.50 654.50 Q 100.00 654.00 100.00 651.00 Q 100.00 648.00 100.50 647.50 Q 101.00 647.00 101.50 640.50 Q 102.00 634.00 102.50 633.50 Q 103.00 633.00 103.00 630.00 Q 103.00 627.00 103.50 626.50 Q 104.00 626.00 104.00 621.50 Q 104.00 617.00 104.50 616.50 Q 105.00 616.00 105.00 595.00 Q 105.00 574.00 104.50 573.50 Q 104.00 573.00 104.00 569.00 Q 104.00 565.00 103.50 564.50 Q 103.00 564.00 102.50 558.00 Q 102.00 552.00 101.00 549.50 Q 100.00 547.00 100.00 545.00 Q 100.00 543.00 99.00 540.00 Q 98.00 537.00 98.00 534.00 Q 98.00 531.00 97.50 530.50 Q 97.00 530.00 97.00 519.00 Q 97.00 508.00 97.50 507.50 Q 98.00 507.00 98.50 503.50 Q 99.00 500.00 101.00 496.00 Q 103.00 492.00 106.00 488.50 Z" fill="#FFFFFF"/>
<path id="shape-6" d="M 302.00 173.50 Q 298.00 169.00 293.00 166.00 Q 288.00 163.00 285.00 162.50 Q 282.00 162.00 281.50 161.50 Q 281.00 161.00 272.00 161.00 Q 263.00 161.00 262.50 161.50 Q 262.00 162.00 260.50 162.00 Q 259.00 162.00 254.50 163.50 Q 250.00 165.00 246.00 167.00 Q 242.00 169.00 233.00 176.00 Q 224.00 183.00 219.00 189.00 Q 214.00 195.00 212.00 199.00 Q 210.00 203.00 209.00 204.00 Q 208.00 205.00 205.00 211.50 Q 202.00 218.00 201.00 221.00 Q 200.00 224.00 200.00 225.50 Q 200.00 227.00 199.50 227.50 Q 199.00 228.00 199.00 229.50 Q 199.00 231.00 198.50 231.50 Q 198.00 232.00 198.00 236.50 Q 198.00 241.00 197.50 241.50 Q 197.00 242.00 197.50 243.00 Q 198.00 244.00 198.00 248.00 Q 198.00 252.00 200.00 256.50 Q 202.00 261.00 204.00 263.50 Q 206.00 266.00 210.00 268.50 Q 214.00 271.00 218.50 272.50 Q 223.00 274.00 226.00 274.00 Q 229.00 274.00 229.50 274.50 Q 230.00 275.00 237.50 275.00 Q 245.00 275.00 245.50 274.50 Q 246.00 274.00 251.50 273.50 Q 257.00 273.00 257.50 272.50 Q 258.00 272.00 259.50 272.00 Q 261.00 272.00 264.00 271.00 Q 267.00 270.00 273.50 267.00 Q 280.00 264.00 282.50 262.00 Q 285.00 260.00 286.50 259.50 Q 288.00 259.00 294.50 252.50 Q 301.00 246.00 304.50 240.00 Q 308.00 234.00 310.00 228.00 Q 312.00 222.00 312.00 219.50 Q 312.00 217.00 312.50 216.50 Q 313.00 216.00 313.00 206.50 Q 313.00 197.00 312.50 196.50 Q 312.00 196.00 312.00 194.00 Q 312.00 192.00 311.00 189.00 Q 310.00 186.00 308.00 182.00 Q 306.00 178.00 302.00 173.50 Z" fill="#000000"/>
<path id="shape-2" d="M 190.00 539.00 Q 184.00 539.00 180.00 541.00 Q 176.00 543.00 173.00 546.00 Q 170.00 549.00 167.50 555.00 Q 165.00 561.00 165.00 563.00 Q 165.00 565.00 164.50 565.50 Q 164.00 566.00 164.00 572.00 Q 164.00 578.00 166.00 584.00 Q 168.00 590.00 171.00 593.50 Q 174.00 597.00 178.00 599.00 Q 182.00 601.00 187.00 601.50 Q 192.00 602.00 192.50 601.50 Q 193.00 601.00 195.00 601.00 Q 197.00 601.00 201.00 599.00 Q 205.00 597.00 208.50 593.50 Q 212.00 590.00 214.50 584.50 Q 217.00 579.00 217.50 572.00 Q 218.00 565.00 217.50 564.50 Q 217.00 564.00 217.00 562.50 Q 217.00 561.00 216.00 558.00 Q 215.00 555.00 214.00 554.00 Q 213.00 553.00 212.50 551.50 Q 212.00 550.00 209.00 547.00 Q 206.00 544.00 201.00 541.50 Q 196.00 539.00 190.00 539.00 Z" fill="#000000"/>
  </g>
</svg>
